<?xml version="1.0" encoding="UTF-8" standalone="no"?>
<!-- Created with Inkscape (http://www.inkscape.org/) -->

<svg
   version="1.1"
   id="svg1"
   width="500"
   height="500"
   viewBox="0 0 500 500"
   sodipodi:docname="Tick-a-boo (print).svg"
   inkscape:version="1.3 (0e150ed6c4, 2023-07-21)"
   xmlns:inkscape="http://www.inkscape.org/namespaces/inkscape"
   xmlns:sodipodi="http://sodipodi.sourceforge.net/DTD/sodipodi-0.dtd"
   xmlns="http://www.w3.org/2000/svg"
   xmlns:svg="http://www.w3.org/2000/svg">
  <defs
     id="defs1">
    <clipPath
       clipPathUnits="userSpaceOnUse"
       id="clipPath2">
      <path
         d="M 0,0 H 1562.5 V 1593.75 H 0 Z"
         transform="scale(0.31999999)"
         clip-rule="evenodd"
         id="path2" />
    </clipPath>
    <clipPath
       clipPathUnits="userSpaceOnUse"
       id="clipPath4">
      <path
         d="M 0,0 H 1562.5 V 1562.5 H 0 Z"
         transform="scale(0.31999999)"
         clip-rule="evenodd"
         id="path4" />
    </clipPath>
    <clipPath
       clipPathUnits="userSpaceOnUse"
       id="clipPath6">
      <path
         d="M 0,0 H 1562.5 V 1562.5 H 0 Z"
         transform="scale(0.31999999)"
         clip-rule="evenodd"
         id="path6" />
    </clipPath>
    <clipPath
       clipPathUnits="userSpaceOnUse"
       id="clipPath8">
      <path
         d="m 464.39771,156.25 h 634.37499 v 887.5 H 464.39771 Z"
         transform="matrix(0.86283351,0,0,0.86252868,-400.6979,-135.12719)"
         clip-rule="evenodd"
         id="path8" />
    </clipPath>
    <clipPath
       clipPathUnits="userSpaceOnUse"
       id="clipPath10">
      <path
         d="m 464.39771,156.25 h 634.37499 v 887.5 H 464.39771 Z"
         transform="matrix(0.86283351,0,0,0.86252868,-400.6979,-135.12719)"
         clip-rule="evenodd"
         id="path10" />
    </clipPath>
    <clipPath
       clipPathUnits="userSpaceOnUse"
       id="clipPath12">
      <path
         d="m 464.39771,156.25 h 634.37499 v 887.5 H 464.39771 Z"
         transform="matrix(0.86283351,0,0,0.86252868,-400.6979,-135.12719)"
         clip-rule="evenodd"
         id="path12" />
    </clipPath>
    <clipPath
       clipPathUnits="userSpaceOnUse"
       id="clipPath14">
      <path
         d="m 464.39771,156.25 h 634.37499 v 887.5 H 464.39771 Z"
         transform="matrix(0.86283351,0,0,0.86252868,-400.6979,-135.12719)"
         clip-rule="evenodd"
         id="path14" />
    </clipPath>
    <clipPath
       clipPathUnits="userSpaceOnUse"
       id="clipPath16">
      <path
         d="m 464.39771,156.25 h 634.37499 v 887.5 H 464.39771 Z"
         transform="matrix(0.86283351,0,0,0.86252868,-400.6979,-135.12719)"
         clip-rule="evenodd"
         id="path16" />
    </clipPath>
    <clipPath
       clipPathUnits="userSpaceOnUse"
       id="clipPath18">
      <path
         d="m 464.39771,156.25 h 634.37499 v 887.5 H 464.39771 Z"
         transform="matrix(0.86283351,0,0,0.86252868,-400.6979,-135.12719)"
         clip-rule="evenodd"
         id="path18" />
    </clipPath>
    <clipPath
       clipPathUnits="userSpaceOnUse"
       id="clipPath20">
      <path
         d="m 464.39771,156.25 h 634.37499 v 887.5 H 464.39771 Z"
         transform="matrix(0.86283351,0,0,0.86252868,-400.6979,-135.12719)"
         clip-rule="evenodd"
         id="path20" />
    </clipPath>
    <clipPath
       clipPathUnits="userSpaceOnUse"
       id="clipPath22">
      <path
         d="m 464.39771,156.25 h 634.37499 v 887.5 H 464.39771 Z"
         transform="matrix(0.86283351,0,0,0.86252868,-400.6979,-135.12719)"
         clip-rule="evenodd"
         id="path22" />
    </clipPath>
    <clipPath
       clipPathUnits="userSpaceOnUse"
       id="clipPath24">
      <path
         d="m 464.39771,156.25 h 634.37499 v 887.5 H 464.39771 Z"
         transform="matrix(0.86283351,0,0,0.86252868,-400.6979,-135.12719)"
         clip-rule="evenodd"
         id="path24" />
    </clipPath>
    <clipPath
       clipPathUnits="userSpaceOnUse"
       id="clipPath26">
      <path
         d="m 464.39771,156.25 h 634.37499 v 887.5 H 464.39771 Z"
         transform="matrix(0.86283351,0,0,0.86252868,-400.6979,-135.12719)"
         clip-rule="evenodd"
         id="path26" />
    </clipPath>
    <clipPath
       clipPathUnits="userSpaceOnUse"
       id="clipPath28">
      <path
         d="m 464.39771,156.25 h 634.37499 v 887.5 H 464.39771 Z"
         transform="matrix(0.86283351,0,0,0.86252868,-400.6979,-135.12719)"
         clip-rule="evenodd"
         id="path28" />
    </clipPath>
    <clipPath
       clipPathUnits="userSpaceOnUse"
       id="clipPath30">
      <path
         d="m 464.39771,156.25 h 634.37499 v 887.5 H 464.39771 Z"
         transform="matrix(0.86283351,0,0,0.86252868,-400.6979,-135.12719)"
         clip-rule="evenodd"
         id="path30" />
    </clipPath>
    <clipPath
       clipPathUnits="userSpaceOnUse"
       id="clipPath32">
      <path
         d="m 464.39771,156.25 h 634.37499 v 887.5 H 464.39771 Z"
         transform="matrix(0.86283351,0,0,0.86252868,-400.6979,-135.12719)"
         clip-rule="evenodd"
         id="path32" />
    </clipPath>
    <clipPath
       clipPathUnits="userSpaceOnUse"
       id="clipPath34">
      <path
         d="m 464.39771,156.25 h 634.37499 v 887.5 H 464.39771 Z"
         transform="matrix(0.86283351,0,0,0.86252868,-400.6979,-135.12719)"
         clip-rule="evenodd"
         id="path34" />
    </clipPath>
    <clipPath
       clipPathUnits="userSpaceOnUse"
       id="clipPath36">
      <path
         d="m 464.39771,156.25 h 634.37499 v 887.5 H 464.39771 Z"
         transform="matrix(0.86283351,0,0,0.86252868,-400.6979,-135.12719)"
         clip-rule="evenodd"
         id="path36" />
    </clipPath>
    <clipPath
       clipPathUnits="userSpaceOnUse"
       id="clipPath38">
      <path
         d="m 464.39771,156.25 h 634.37499 v 887.5 H 464.39771 Z"
         transform="matrix(0.86283351,0,0,0.86252868,-400.6979,-135.12719)"
         clip-rule="evenodd"
         id="path38" />
    </clipPath>
    <clipPath
       clipPathUnits="userSpaceOnUse"
       id="clipPath40">
      <path
         d="m 464.39771,156.25 h 634.37499 v 887.5 H 464.39771 Z"
         transform="matrix(0.86283351,0,0,0.86252868,-400.6979,-135.12719)"
         clip-rule="evenodd"
         id="path40" />
    </clipPath>
    <clipPath
       clipPathUnits="userSpaceOnUse"
       id="clipPath42">
      <path
         d="m 464.39771,156.25 h 634.37499 v 887.5 H 464.39771 Z"
         transform="matrix(0.86283351,0,0,0.86252868,-400.6979,-135.12719)"
         clip-rule="evenodd"
         id="path42" />
    </clipPath>
    <clipPath
       clipPathUnits="userSpaceOnUse"
       id="clipPath44">
      <path
         d="m 464.39771,156.25 h 634.37499 v 887.5 H 464.39771 Z"
         transform="matrix(0.86283351,0,0,0.86252868,-400.6979,-135.12719)"
         clip-rule="evenodd"
         id="path44" />
    </clipPath>
    <clipPath
       clipPathUnits="userSpaceOnUse"
       id="clipPath46">
      <path
         d="m 464.39771,156.25 h 634.37499 v 887.5 H 464.39771 Z"
         transform="matrix(0.86283351,0,0,0.86252868,-400.6979,-135.12719)"
         clip-rule="evenodd"
         id="path46" />
    </clipPath>
    <clipPath
       clipPathUnits="userSpaceOnUse"
       id="clipPath48">
      <path
         d="m 464.39771,156.25 h 634.37499 v 887.5 H 464.39771 Z"
         transform="matrix(0.86283351,0,0,0.86252868,-400.6979,-135.12719)"
         clip-rule="evenodd"
         id="path48" />
    </clipPath>
    <clipPath
       clipPathUnits="userSpaceOnUse"
       id="clipPath50">
      <path
         d="m 464.39771,156.25 h 634.37499 v 887.5 H 464.39771 Z"
         transform="matrix(0.86283351,0,0,0.86252868,-400.6979,-135.12719)"
         clip-rule="evenodd"
         id="path50" />
    </clipPath>
    <clipPath
       clipPathUnits="userSpaceOnUse"
       id="clipPath52">
      <path
         d="m 464.39771,156.25 h 634.37499 v 887.5 H 464.39771 Z"
         transform="matrix(0.86283351,0,0,0.86252868,-400.6979,-135.12719)"
         clip-rule="evenodd"
         id="path52" />
    </clipPath>
    <clipPath
       clipPathUnits="userSpaceOnUse"
       id="clipPath54">
      <path
         d="m 464.39771,156.25 h 634.37499 v 887.5 H 464.39771 Z"
         transform="matrix(0.86283351,0,0,0.86252868,-400.6979,-135.12719)"
         clip-rule="evenodd"
         id="path54" />
    </clipPath>
    <clipPath
       clipPathUnits="userSpaceOnUse"
       id="clipPath56">
      <path
         d="m 464.39771,156.25 h 634.37499 v 887.5 H 464.39771 Z"
         transform="matrix(0.86283351,0,0,0.86252868,-400.6979,-135.12719)"
         clip-rule="evenodd"
         id="path56" />
    </clipPath>
    <clipPath
       clipPathUnits="userSpaceOnUse"
       id="clipPath58">
      <path
         d="m 464.39771,156.25 h 634.37499 v 887.5 H 464.39771 Z"
         transform="matrix(0.86283351,0,0,0.86252868,-400.6979,-135.12719)"
         clip-rule="evenodd"
         id="path58" />
    </clipPath>
    <clipPath
       clipPathUnits="userSpaceOnUse"
       id="clipPath60">
      <path
         d="m 464.39771,156.25 h 634.37499 v 887.5 H 464.39771 Z"
         transform="matrix(0.86283351,0,0,0.86252868,-400.6979,-135.12719)"
         clip-rule="evenodd"
         id="path60" />
    </clipPath>
    <clipPath
       clipPathUnits="userSpaceOnUse"
       id="clipPath62">
      <path
         d="m 464.39771,156.25 h 634.37499 v 887.5 H 464.39771 Z"
         transform="matrix(0.86283351,0,0,0.86252868,-400.6979,-135.12719)"
         clip-rule="evenodd"
         id="path62" />
    </clipPath>
    <clipPath
       clipPathUnits="userSpaceOnUse"
       id="clipPath64">
      <path
         d="m 464.39771,156.25 h 634.37499 v 887.5 H 464.39771 Z"
         transform="matrix(0.86283351,0,0,0.86252868,-400.6979,-135.12719)"
         clip-rule="evenodd"
         id="path64" />
    </clipPath>
    <clipPath
       clipPathUnits="userSpaceOnUse"
       id="clipPath66">
      <path
         d="m 464.39771,156.25 h 634.37499 v 887.5 H 464.39771 Z"
         transform="matrix(0.86283351,0,0,0.86252868,-400.6979,-135.12719)"
         clip-rule="evenodd"
         id="path66" />
    </clipPath>
    <clipPath
       clipPathUnits="userSpaceOnUse"
       id="clipPath68">
      <path
         d="m 464.39771,156.25 h 634.37499 v 887.5 H 464.39771 Z"
         transform="matrix(0.86283351,0,0,0.86252868,-400.6979,-135.12719)"
         clip-rule="evenodd"
         id="path68" />
    </clipPath>
    <clipPath
       clipPathUnits="userSpaceOnUse"
       id="clipPath70">
      <path
         d="m 464.39771,156.25 h 634.37499 v 887.5 H 464.39771 Z"
         transform="matrix(0.86283351,0,0,0.86252868,-400.6979,-135.12719)"
         clip-rule="evenodd"
         id="path70" />
    </clipPath>
    <clipPath
       clipPathUnits="userSpaceOnUse"
       id="clipPath72">
      <path
         d="m 464.39771,156.25 h 634.37499 v 887.5 H 464.39771 Z"
         transform="matrix(0.86283351,0,0,0.86252868,-400.6979,-135.12719)"
         clip-rule="evenodd"
         id="path72" />
    </clipPath>
    <clipPath
       clipPathUnits="userSpaceOnUse"
       id="clipPath74">
      <path
         d="m 464.39771,156.25 h 634.37499 v 887.5 H 464.39771 Z"
         transform="matrix(0.86283351,0,0,0.86252868,-400.6979,-135.12719)"
         clip-rule="evenodd"
         id="path74" />
    </clipPath>
    <clipPath
       clipPathUnits="userSpaceOnUse"
       id="clipPath76">
      <path
         d="m 464.39771,156.25 h 634.37499 v 887.5 H 464.39771 Z"
         transform="matrix(0.86283351,0,0,0.86252868,-400.6979,-135.12719)"
         clip-rule="evenodd"
         id="path76" />
    </clipPath>
    <clipPath
       clipPathUnits="userSpaceOnUse"
       id="clipPath78">
      <path
         d="m 464.39771,156.25 h 634.37499 v 887.5 H 464.39771 Z"
         transform="matrix(0.86283351,0,0,0.86252868,-400.6979,-135.12719)"
         clip-rule="evenodd"
         id="path78" />
    </clipPath>
    <clipPath
       clipPathUnits="userSpaceOnUse"
       id="clipPath80">
      <path
         d="m 464.39771,156.25 h 634.37499 v 887.5 H 464.39771 Z"
         transform="matrix(0.86283351,0,0,0.86252868,-400.6979,-135.12719)"
         clip-rule="evenodd"
         id="path80" />
    </clipPath>
    <clipPath
       clipPathUnits="userSpaceOnUse"
       id="clipPath82">
      <path
         d="m 464.39771,156.25 h 634.37499 v 887.5 H 464.39771 Z"
         transform="matrix(0.86283351,0,0,0.86252868,-400.6979,-135.12719)"
         clip-rule="evenodd"
         id="path82" />
    </clipPath>
    <clipPath
       clipPathUnits="userSpaceOnUse"
       id="clipPath84">
      <path
         d="m 464.39771,156.25 h 634.37499 v 887.5 H 464.39771 Z"
         transform="matrix(0.86283351,0,0,0.86252868,-400.6979,-135.12719)"
         clip-rule="evenodd"
         id="path84" />
    </clipPath>
    <clipPath
       clipPathUnits="userSpaceOnUse"
       id="clipPath86">
      <path
         d="m 464.39771,156.25 h 634.37499 v 887.5 H 464.39771 Z"
         transform="matrix(0.86283351,0,0,0.86252868,-400.6979,-135.12719)"
         clip-rule="evenodd"
         id="path86" />
    </clipPath>
    <clipPath
       clipPathUnits="userSpaceOnUse"
       id="clipPath88">
      <path
         d="m 464.39771,156.25 h 634.37499 v 887.5 H 464.39771 Z"
         transform="matrix(0.86283351,0,0,0.86252868,-400.6979,-135.12719)"
         clip-rule="evenodd"
         id="path88" />
    </clipPath>
    <clipPath
       clipPathUnits="userSpaceOnUse"
       id="clipPath90">
      <path
         d="m 464.39771,156.25 h 634.37499 v 887.5 H 464.39771 Z"
         transform="matrix(0.86283351,0,0,0.86252868,-400.6979,-135.12719)"
         clip-rule="evenodd"
         id="path90" />
    </clipPath>
    <clipPath
       clipPathUnits="userSpaceOnUse"
       id="clipPath92">
      <path
         d="m 464.39771,156.25 h 634.37499 v 887.5 H 464.39771 Z"
         transform="matrix(0.86283351,0,0,0.86252868,-400.6979,-135.12719)"
         clip-rule="evenodd"
         id="path92" />
    </clipPath>
    <clipPath
       clipPathUnits="userSpaceOnUse"
       id="clipPath94">
      <path
         d="m 464.39771,156.25 h 634.37499 v 887.5 H 464.39771 Z"
         transform="matrix(0.86283351,0,0,0.86252868,-400.6979,-135.12719)"
         clip-rule="evenodd"
         id="path94" />
    </clipPath>
    <clipPath
       clipPathUnits="userSpaceOnUse"
       id="clipPath96">
      <path
         d="m 464.39771,156.25 h 634.37499 v 887.5 H 464.39771 Z"
         transform="matrix(0.86283351,0,0,0.86252868,-400.6979,-135.12719)"
         clip-rule="evenodd"
         id="path96" />
    </clipPath>
    <clipPath
       clipPathUnits="userSpaceOnUse"
       id="clipPath98">
      <path
         d="m 464.39771,156.25 h 634.37499 v 887.5 H 464.39771 Z"
         transform="matrix(0.86283351,0,0,0.86252868,-400.6979,-135.12719)"
         clip-rule="evenodd"
         id="path98" />
    </clipPath>
    <clipPath
       clipPathUnits="userSpaceOnUse"
       id="clipPath100">
      <path
         d="m 464.39771,156.25 h 634.37499 v 887.5 H 464.39771 Z"
         transform="matrix(0.86283351,0,0,0.86252868,-400.6979,-135.12719)"
         clip-rule="evenodd"
         id="path100" />
    </clipPath>
    <clipPath
       clipPathUnits="userSpaceOnUse"
       id="clipPath102">
      <path
         d="m 464.39771,156.25 h 634.37499 v 887.5 H 464.39771 Z"
         transform="matrix(0.86283351,0,0,0.86252868,-400.6979,-135.12719)"
         clip-rule="evenodd"
         id="path102" />
    </clipPath>
    <clipPath
       clipPathUnits="userSpaceOnUse"
       id="clipPath104">
      <path
         d="m 464.39771,156.25 h 634.37499 v 887.5 H 464.39771 Z"
         transform="matrix(0.86283351,0,0,0.86252868,-400.6979,-135.12719)"
         clip-rule="evenodd"
         id="path104" />
    </clipPath>
    <clipPath
       clipPathUnits="userSpaceOnUse"
       id="clipPath106">
      <path
         d="m 464.39771,156.25 h 634.37499 v 887.5 H 464.39771 Z"
         transform="matrix(0.86283351,0,0,0.86252868,-400.6979,-135.12719)"
         clip-rule="evenodd"
         id="path106" />
    </clipPath>
    <clipPath
       clipPathUnits="userSpaceOnUse"
       id="clipPath108">
      <path
         d="m 464.39771,156.25 h 634.37499 v 887.5 H 464.39771 Z"
         transform="matrix(0.86283351,0,0,0.86252868,-400.6979,-135.12719)"
         clip-rule="evenodd"
         id="path108" />
    </clipPath>
    <clipPath
       clipPathUnits="userSpaceOnUse"
       id="clipPath110">
      <path
         d="m 464.39771,156.25 h 634.37499 v 887.5 H 464.39771 Z"
         transform="matrix(0.86283351,0,0,0.86252868,-400.6979,-135.12719)"
         clip-rule="evenodd"
         id="path110" />
    </clipPath>
    <clipPath
       clipPathUnits="userSpaceOnUse"
       id="clipPath112">
      <path
         d="m 464.39771,156.25 h 634.37499 v 887.5 H 464.39771 Z"
         transform="matrix(0.86283351,0,0,0.86252868,-400.6979,-135.12719)"
         clip-rule="evenodd"
         id="path112" />
    </clipPath>
    <clipPath
       clipPathUnits="userSpaceOnUse"
       id="clipPath114">
      <path
         d="m 464.39771,156.25 h 634.37499 v 887.5 H 464.39771 Z"
         transform="matrix(0.86283351,0,0,0.86252868,-400.6979,-135.12719)"
         clip-rule="evenodd"
         id="path114" />
    </clipPath>
    <clipPath
       clipPathUnits="userSpaceOnUse"
       id="clipPath116">
      <path
         d="m 464.39771,156.25 h 634.37499 v 887.5 H 464.39771 Z"
         transform="matrix(0.86283351,0,0,0.86252868,-400.6979,-135.12719)"
         clip-rule="evenodd"
         id="path116" />
    </clipPath>
    <clipPath
       clipPathUnits="userSpaceOnUse"
       id="clipPath118">
      <path
         d="m 464.39771,156.25 h 634.37499 v 887.5 H 464.39771 Z"
         transform="matrix(0.86283351,0,0,0.86252868,-400.6979,-135.12719)"
         clip-rule="evenodd"
         id="path118" />
    </clipPath>
    <clipPath
       clipPathUnits="userSpaceOnUse"
       id="clipPath120">
      <path
         d="m 464.39771,156.25 h 634.37499 v 887.5 H 464.39771 Z"
         transform="matrix(0.86283351,0,0,0.86252868,-400.6979,-135.12719)"
         clip-rule="evenodd"
         id="path120" />
    </clipPath>
    <clipPath
       clipPathUnits="userSpaceOnUse"
       id="clipPath122">
      <path
         d="m 464.39771,156.25 h 634.37499 v 887.5 H 464.39771 Z"
         transform="matrix(0.86283351,0,0,0.86252868,-400.6979,-135.12719)"
         clip-rule="evenodd"
         id="path122" />
    </clipPath>
    <clipPath
       clipPathUnits="userSpaceOnUse"
       id="clipPath124">
      <path
         d="m 464.39771,156.25 h 634.37499 v 887.5 H 464.39771 Z"
         transform="matrix(0.86283351,0,0,0.86252868,-400.6979,-135.12719)"
         clip-rule="evenodd"
         id="path124" />
    </clipPath>
    <clipPath
       clipPathUnits="userSpaceOnUse"
       id="clipPath126">
      <path
         d="m 464.39771,156.25 h 634.37499 v 887.5 H 464.39771 Z"
         transform="matrix(0.86283351,0,0,0.86252868,-400.6979,-135.12719)"
         clip-rule="evenodd"
         id="path126" />
    </clipPath>
    <clipPath
       clipPathUnits="userSpaceOnUse"
       id="clipPath128">
      <path
         d="m 464.39771,156.25 h 634.37499 v 887.5 H 464.39771 Z"
         transform="matrix(0.86283351,0,0,0.86252868,-400.6979,-135.12719)"
         clip-rule="evenodd"
         id="path128" />
    </clipPath>
    <clipPath
       clipPathUnits="userSpaceOnUse"
       id="clipPath130">
      <path
         d="m 464.39771,156.25 h 634.37499 v 887.5 H 464.39771 Z"
         transform="matrix(0.86283351,0,0,0.86252868,-400.6979,-135.12719)"
         clip-rule="evenodd"
         id="path130" />
    </clipPath>
    <clipPath
       clipPathUnits="userSpaceOnUse"
       id="clipPath132">
      <path
         d="m 464.39771,156.25 h 634.37499 v 887.5 H 464.39771 Z"
         transform="matrix(0.86283351,0,0,0.86252868,-400.6979,-135.12719)"
         clip-rule="evenodd"
         id="path132" />
    </clipPath>
    <clipPath
       clipPathUnits="userSpaceOnUse"
       id="clipPath134">
      <path
         d="m 464.39771,156.25 h 634.37499 v 887.5 H 464.39771 Z"
         transform="matrix(0.86283351,0,0,0.86252868,-400.6979,-135.12719)"
         clip-rule="evenodd"
         id="path134" />
    </clipPath>
    <clipPath
       clipPathUnits="userSpaceOnUse"
       id="clipPath136">
      <path
         d="m 464.39771,156.25 h 634.37499 v 887.5 H 464.39771 Z"
         transform="matrix(0.86283351,0,0,0.86252868,-400.6979,-135.12719)"
         clip-rule="evenodd"
         id="path136" />
    </clipPath>
    <clipPath
       clipPathUnits="userSpaceOnUse"
       id="clipPath138">
      <path
         d="m 464.39771,156.25 h 634.37499 v 887.5 H 464.39771 Z"
         transform="matrix(0.86283351,0,0,0.86252868,-400.6979,-135.12719)"
         clip-rule="evenodd"
         id="path138" />
    </clipPath>
    <clipPath
       clipPathUnits="userSpaceOnUse"
       id="clipPath140">
      <path
         d="m 464.39771,156.25 h 634.37499 v 887.5 H 464.39771 Z"
         transform="matrix(0.86283351,0,0,0.86252868,-400.6979,-135.12719)"
         clip-rule="evenodd"
         id="path140" />
    </clipPath>
    <clipPath
       clipPathUnits="userSpaceOnUse"
       id="clipPath142">
      <path
         d="M 0,0 H 1562.5 V 1562.5 H 0 Z"
         transform="matrix(0.27378097,0,0,0.27378097,-73.286888,-316.43186)"
         clip-rule="evenodd"
         id="path142" />
    </clipPath>
    <clipPath
       clipPathUnits="userSpaceOnUse"
       id="clipPath144">
      <path
         d="M 0,0 H 1562.5 V 1562.5 H 0 Z"
         transform="matrix(0.24359726,0,0,0.24359726,-107.36221,-304.45304)"
         clip-rule="evenodd"
         id="path144" />
    </clipPath>
  </defs>
  <sodipodi:namedview
     id="namedview1"
     pagecolor="#ffffff"
     bordercolor="#000000"
     borderopacity="0.25"
     inkscape:showpageshadow="2"
     inkscape:pageopacity="0.0"
     inkscape:pagecheckerboard="0"
     inkscape:deskcolor="#d1d1d1"
     inkscape:zoom="1.626"
     inkscape:cx="250"
     inkscape:cy="250"
     inkscape:window-width="1920"
     inkscape:window-height="1009"
     inkscape:window-x="-8"
     inkscape:window-y="-8"
     inkscape:window-maximized="1"
     inkscape:current-layer="g1">
    <inkscape:page
       x="0"
       y="0"
       inkscape:label="1"
       id="page1"
       width="500"
       height="500"
       margin="0"
       bleed="0" />
  </sodipodi:namedview>
  <g
     id="g1"
     inkscape:groupmode="layer"
     inkscape:label="1">
    <path
       id="path1"
       d="M 0,0 H 500 V 510 H 0 Z"
       style="fill:#ffffff;fill-opacity:1;fill-rule:nonzero;stroke:none"
       clip-path="url(#clipPath2)" />
    <path
       id="path3"
       d="M 0,0 H 500 V 500 H 0 Z"
       style="fill:#ffffff;fill-opacity:1;fill-rule:nonzero;stroke:none"
       clip-path="url(#clipPath4)" />
    <path
       id="path5"
       d="M 0,0 H 500 V 500 H 0 Z"
       style="fill:#010101;fill-opacity:1;fill-rule:nonzero;stroke:none"
       clip-path="url(#clipPath6)" />
    <path
       id="path7"
       d="m 511.48999,413.59 c -0.69,-1.25 -1.10001,-1.88001 -1.10001,-1.88001 l 0.56,0.10001 c 2.95621,-12.87931 3.12955,-25.79599 0.51999,-38.75 12.98193,-2.79837 24.94525,-7.95838 35.89002,-15.48001 -11.72822,-4.47199 -22.49823,-10.62198 -32.31,-18.45002 -9.29007,-7.82424 -17.71341,-16.49093 -25.26999,-26 l 24.37002,7.23002 -26,-47.26001 c -9.1185,-11.48792 -20.33184,-20.31458 -33.64001,-26.48 l -4.69,-1.92999 -0.56,-0.2 c 5.23999,-4.83 14,-11.50999 28.42999,-19.25999 -22,-13 -46.73001,-12.52001 -60.47,-10.87 -3.02835,0.31657 -6.02835,0.80656 -9,1.47 -1.07999,0.24001 -1.67001,0.39 -1.67001,0.39 0.5621,-2.24655 0.89541,-4.52655 1,-6.84 l 0.1,-3.11 2.93,-11 22.29001,-50.49 -6.47001,-9.78 13.71,-6.76 L 477,44.650002 339.54999,101.7 291.04999,31.599998 273.67999,0 256.31,31.6 207.81,101.7 70.360001,44.699997 107.25,128.28 121,135 l -6.41,9.8 22.29,50.49001 2.93,11 0.1,3.11 c 0.10457,2.31345 0.4379,4.59344 1,6.84 0,0 -0.58999,-0.15 -1.67999,-0.39 -2.97153,-0.66433 -5.97153,-1.15432 -9,-1.47001 -13.72999,-1.64999 -38.440001,-2.08999 -60.459998,10.87 14.400001,7.75 23.190002,14.42999 28.43,19.25999 l -0.559997,0.2 -4.690003,1.92999 C 79.641853,252.8054 68.42852,261.63208 59.310013,273.12 l -26,47.26 24.370003,-7.23001 c -7.559742,9.50959 -15.986409,18.17624 -25.279999,26 -9.840546,7.83008 -20.64055,13.97342 -32.400017,18.43 10.940584,7.52282 22.900583,12.68283 35.880001,15.48001 -2.608768,12.9548 -2.432102,25.87149 0.529999,38.75 l 0.560001,-0.10001 c 0,0 -0.41,0.63001 -1.11,1.88001 C 28.279999,426.46332 23.326666,442.89999 21,462.89999 c -2.780001,18.4 -4.059999,42 -1.52,71.17002 7,-6 12.319999,-10.68 16.389999,-14.27002 -0.200001,1 -0.400002,2.09002 -0.619999,3.14001 -0.43,1.84003 -7.43,32.16999 -15.77,62.27002 12.00275,-6.906 23.336082,-14.776 34,-23.60998 -0.14,2.46997 -0.200001,4.95001 -0.16,7.39001 0.560001,41.34003 25.139999,67.48999 26.190002,68.58002 l 6.349999,6.63 5.720001,6 15.999998,16.73999 c 0,0 3.72,39.82001 48,77.32001 l 2,-16 c 5.53999,7.17999 12.73,15.95001 17.39,19.64002 0.14,-0.33002 1.26,-28.35999 2.42,-32.56 5.45,11.27002 17.72,27.63 44.75999,37 -1.44,-5.82001 -2.61999,-10.73999 -3.57,-14.79999 4.21,4.37 9.47,9.63 14.19,14.09998 2.8571,3.05389 5.9671,5.82391 9.33,8.30999 0.53999,0.41999 1,0.77002 1.42,1 -0.75,-8 -1.24001,-13.26001 -1.57001,-16.71997 1.8,1.43 3.69,2.84003 5.67999,4.20001 4.84,6 13,13 26.06,16.34998 13.09,-3.40002 21.22,-10.33002 26.06,-16.34998 2,-1.35998 3.86999,-2.77001 5.67001,-4.20001 -0.32,3.46002 -0.80999,8.71002 -1.55999,16.71997 0.39001,-0.26001 0.86999,-0.60998 1.41,-1 3.366,-2.48602 6.47931,-5.25598 9.34,-8.30999 4.70999,-4.46998 10,-9.72998 14.19,-14.09998 -1,4.06 -2.14002,9 -3.57001,14.79999 27,-9.40003 39.29999,-25.76001 44.75,-37 1.17001,4.20001 2.28,32.22998 2.42999,32.56 4.65,-3.69001 11.84,-12.46003 17.39002,-19.64002 l 2,16 c 44.25,-37.5 48,-77.32001 48,-77.32001 l 16,-16.73999 5.72,-6 6.35001,-6.63 c 1.04998,-1.09003 25.63,-27.23999 26.19,-68.58002 0,-2.44 0,-4.91998 -0.16001,-7.39001 7.35999,6.25 18.26999,14.34997 34.00003,23.60998 C 519.57001,555.11005 512.56,524.78003 512.14001,522.94 c -0.22,-1.04999 -0.42999,-2.09997 -0.61999,-3.14001 4.06,3.59002 9.40002,8.25 16.38,14.27002 2.54999,-29.18 1.26001,-52.76999 -1.51001,-71.16999 -2.33331,-19.96667 -7.29998,-36.40335 -14.90002,-49.31002 z"
       style="fill:#010101;fill-opacity:1;fill-rule:nonzero;stroke:none"
       transform="matrix(0.37087107,0,0,0.37100214,148.60726,50.132478)"
       clip-path="url(#clipPath8)" />
    <path
       id="path9"
       d="m 120.52,309.48999 c -0.16001,0.89999 -5.57,29.66 -35.240001,49.26999 -30.14,19.92001 -28.610001,47.51001 -28.610001,47.51001 0,0 -9.700001,-35.5 18.39,-63.85001 -16.340001,12.07001 -37.14,19.43 -37.779999,19.65 1,-0.76999 34.449997,-25.5 49.529999,-55.92002 0,0 3.459999,20.19001 -1,37.79999 C 110.36,332.91 120.22,310.19 120.52,309.48999 Z"
       style="fill:#dfaf67;fill-opacity:1;fill-rule:nonzero;stroke:none"
       transform="matrix(0.37087107,0,0,0.37100214,148.60726,50.132478)"
       clip-path="url(#clipPath10)" />
    <path
       id="path11"
       d="m 211.42999,720.09003 c -0.78999,-0.26001 -26.33,-9.16999 -25.67999,-66.56 0.67,-58.28998 -15.89,-76.83002 -15.89,-76.83002 16.66,67.94 -12.75999,132.69 -13.56999,134.42999 0.24,-1.77001 9.25,-67.16003 -15.58,-112.48999 6.94999,32.87 -8.94001,53.57001 -2.65,93.64002 -19.54,-28.81 -7.28999,-96.70001 -20.19999,-127.17999 3.64,41.40997 -10.93,84.13 -10.93,84.13 0,0 0,-62.92999 -16.230008,-102.47003 -10.779999,37.42999 3.57,75.25 4,76.28003 -0.68,-0.71002 -24.11,-26 -19.86,-64.90003 4.309997,-39.40997 -2,-66.23999 -2,-66.23999 0,0 -1,20.87 -18.879998,43.72998 12.919999,-53.66 0.34,-74.79998 0.34,-74.79998 -10.600002,24.86999 -13.61,40.53 -13.61,40.53 C 37.25,404 81.050003,404.28 81.050003,404.28 c 0,0 -20.440002,28.48001 -16.050003,56.54999 22.510002,-56.20999 69.54001,-62.91001 71,-63.10001 -24.68,17.25 -34.29,37.41 -34.86,38.64002 0.79,-1.07001 12,-16.10001 36.34999,-27.28 -32.77,25.54998 -32.25,61.41 -32.25,61.41 l 0.08,-0.13 c 1.12001,-1.70002 13.4,-20.10001 31.31,-34.10999 l 0.07,-0.06 c -29.4,35.35001 -25,76.38001 -25,76.38001 0,0 8.53,-33.58002 25.3,-53.95002 -17.89,43.16999 -3.14,88.64002 -2.85001,89.53003 0,0 0.12,-6.65997 1.16001,-16 0,-0.06 0,-0.14001 0,-0.21002 1.64999,-14.60998 5.55999,-35.70999 14.75,-48.54001 -10.13001,56.00003 13.49,96.00003 13.49,96.00003 0,0 0,-32.5 -8.25999,-58.36999 42.58,49.75 37,122.23999 37,122.23999 0,0 3.31,-11.91998 8.61,-20.85999 -12.62001,72.62995 9.79999,96.89997 10.52998,97.66999 z"
       style="fill:#dfaf67;fill-opacity:1;fill-rule:nonzero;stroke:none"
       transform="matrix(0.37087107,0,0,0.37100214,148.60726,50.132478)"
       clip-path="url(#clipPath12)" />
    <path
       id="path13"
       d="m 154.23,288.56 c 0,0 -21.67,-6.19 -43.62,-1.69 10.13,2.52999 13,4.5 13,4.5 0,0 -21.39,-0.56 -24.199996,27.85998 C 87.260002,290.23999 94,280.39999 94,280.39999 l -18,5.34 c 0,0 24.92,-33 60.79001,-22.79001 0,0 -11,-21.39 -32.93,-26.45999 C 140.44,229.46001 173.64999,244.37 154.23,288.56 Z"
       style="fill:#dfaf67;fill-opacity:1;fill-rule:nonzero;stroke:none"
       transform="matrix(0.37087107,0,0,0.37100214,148.60726,50.132478)"
       clip-path="url(#clipPath14)" />
    <path
       id="path15"
       d="m 229.66,395.64999 c -0.58999,0.34 -13.07,7.46 -24.30999,4.73999 -11.23999,-2.72 -18.53,-17.63998 -18.75,-18.11001 L 207,388.60995 v 7.22001 l 0.62,-0.57999 5.22999,-4.82001 16.81,5.20999 1e-5,0.01 z"
       style="fill:#dfaf67;fill-opacity:1;fill-rule:nonzero;stroke:none"
       transform="matrix(0.37087107,0,0,0.37100214,148.60726,50.132478)"
       clip-path="url(#clipPath16)" />
    <path
       id="path17"
       d="m 227.39999,685.33002 c -0.44319,9.98626 1.10682,19.65295 4.65,29 1.54936,4.07354 3.5327,7.92352 5.95001,11.54998 -11.24001,-7.25 -17.06,-18.69 -20,-29.77001 -2.64818,-10.52778 -3.45151,-21.1944 -2.41,-32 2,21.44 7.05999,30.21997 7.05999,30.21997 0,0 -1.07,-16.37 2.26,-27.41999 3.53,15.07001 19.2,39 19.69,39.77997 -2.52,-9.84997 0.10001,-23.53003 0.10001,-23.53003 0,0 0.11,1.15003 0.42999,3.21997 2.54454,15.69312 7.37787,30.64643 14.50001,44.85999 C 233.10001,713 227.72,687 227.41,685.40997 c -0.006,-0.0264 -0.009,-0.053 -0.01,-0.08 z"
       style="fill:#dfaf67;fill-opacity:1;fill-rule:nonzero;stroke:none"
       transform="matrix(0.37087107,0,0,0.37100214,148.60726,50.132478)"
       clip-path="url(#clipPath18)" />
    <path
       id="path19"
       d="m 229.66,222.56 c 7.84978,3.95262 13.88645,9.78262 18.11,17.49 -0.47,-0.24 -15.50999,-8.1 -39.69,-13.43 15.35001,15.35 22.66001,26 22.66001,26 0,0 -21.64,-14.91001 -45.47001,-20.91001 -23.83,-6 -24.41,-23.08999 -24.41,-23.08999 0,0 12,9.63999 38,8.33 l -11.55,-6.87 c 0,0 38.44999,-4.83 61.39999,6.28 -10.47999,-10.47 -13.14,-14.78 -13.28999,-15 0.82001,0.23 36.74998,10.84 37.37001,48 0.01,0.01 -17.64002,-26.44 -43.13001,-26.8 z"
       style="fill:#dfaf67;fill-opacity:1;fill-rule:nonzero;stroke:none"
       transform="matrix(0.37087107,0,0,0.37100214,148.60726,50.132478)"
       clip-path="url(#clipPath20)" />
    <path
       id="path21"
       d="m 286.62,470.5 c 2.21023,-1.78445 4.72177,-2.87491 7.53466,-3.27136 2.8129,-0.39646 5.52799,-0.0427 8.14533,1.06137 0,0 -2.42999,-8.82999 -14.23999,-7.28 -11.81,1.54999 -15.26001,0.88 -15.26001,0.88 0,0 -3.45001,0.66001 -15.26001,-0.88 -11.81,-1.54001 -14.24001,7.28 -14.24001,7.28 2.61983,-1.11038 5.3386,-1.46729 8.15627,-1.07065 2.81767,0.39661 5.33224,1.49014 7.54376,3.28064 7.95001,6.07001 13.82999,5.63 13.82999,5.63 0,0 5.84002,0.44001 13.79001,-5.63 z"
       style="fill:#ffffff;fill-opacity:1;fill-rule:nonzero;stroke:none"
       transform="matrix(0.37087107,0,0,0.37100214,148.60726,50.132478)"
       clip-path="url(#clipPath22)" />
    <path
       id="path23"
       d="m 297,546.75 -1.81,-7.58002 -0.76999,3.33002 c -9.35,-1.28003 -21.61999,0 -21.61999,0 0,0 -12.26999,-1.28003 -21.62,0 l -0.77,-3.33002 -1.81,7.58002 c -0.21001,-0.19 -4.13,-3.90997 -2.74,-12.66998 0,0 6.22999,2.40997 27,0.22998 20.72,2.17999 26.95001,-0.22998 26.95001,-0.22998 C 301.17999,543.07001 297,546.75 297,546.75 Z"
       style="fill:#ffffff;fill-opacity:1;fill-rule:nonzero;stroke:none"
       transform="matrix(0.37087107,0,0,0.37100214,148.60726,50.132478)"
       clip-path="url(#clipPath24)" />
    <path
       id="path25"
       d="m 299,666.5 c 8.16,-12.62 5.20999,-30.09998 5.20999,-30.09998 0,0 -2.54001,37.09998 -31.36001,37.09998 -28.82001,0 -31.36001,-37.09998 -31.36001,-37.09998 0,0 -2.94999,17.47998 5.21001,30.09998 -52.83,-17.09003 -32.86,-65.07001 -32.86,-65.07001 0,0 3,16.08002 17,11.72998 -11,-16.89001 -6.27,-38.14001 -6.27,-38.14001 7.69999,16.28998 17.19999,25.17999 22.91,29.41998 15,-6.92999 25.38001,-5.71997 25.38001,-5.71997 0,0 10.39999,-1.21002 25.38,5.71997 5.70999,-4.23999 15.20999,-13.13 22.91,-29.41998 0,0 4.72001,21.25 -6.26999,38.14001 14,4.34998 17,-11.72998 17,-11.72998 0,0 19.9,47.97998 -32.88,65.07001 z"
       style="fill:#dfaf67;fill-opacity:1;fill-rule:nonzero;stroke:none"
       transform="matrix(0.37087107,0,0,0.37100214,148.60726,50.132478)"
       clip-path="url(#clipPath26)" />
    <path
       id="path27"
       d="m 457.26001,392 c -27.07999,-25.54001 -24,-79.67999 -85.56,-78.14999 12.57001,8.39001 18.72,25.57 19.12,26.76001 -1,-1.39002 -20.88001,-28.34 -57.10001,-30.9 l -0.85,-1 c -10.18,-11.73001 -24.76999,-11.32001 -37.12,-7.13 1.26001,-3.9 5.73999,-12.17002 21.69,-18.48999 21.62,-8.57999 26.41001,-13.92002 26.41001,-13.92002 0,0 3.70001,15.32999 -22.44001,27.51001 0,0 30.23999,3.70002 47.76001,-9.44 -6.29998,11.22 -19.54001,18.14999 -35,17.22 0,0 72.26001,24 41.94001,-44.89001 3.48001,17.83999 -20,24.26999 -20.65,24.45001 0.67999,-0.48001 17.65,-12.85999 -3.07998,-43.95 -3.76001,20.90999 -53.11002,20.68001 -65.80002,56.62999 C 284.94,270.15002 307.73001,246.41 307.73001,246.41 c 0,0 -27.29001,7.29 -34.91,36 0.003,-0.02 0.003,-0.04 0,-0.06 -7.65,-28.60001 -34.89,-35.88001 -34.89,-35.88001 0,0 22.78999,23.73999 21.15001,50.29001 -12.71001,-35.91 -62,-35.69 -65.78,-56.59 -20.73,31.09 -3.76,43.47 -3.08,43.95002 -0.68,-0.18 -24.13001,-6.60999 -20.65,-24.45002 -29.93001,68 40.09999,45.48999 41.90001,44.9 -15.47999,0.92999 -28.72,-6 -35,-17.22 17.52001,13.14001 47.76,9.44 47.76,9.44 -26.14,-12.17999 -22.44001,-27.51001 -22.44001,-27.51001 0,0 4.79,5.34 26.41001,13.92001 16,6.32001 20.43001,14.59 21.69,18.48999 -12.35001,-4.19 -26.94,-4.6 -37.12,7.13001 l -0.85,1 c -36.22,2.55999 -56.08,29.51001 -57.09999,30.89999 0.39999,-1.19 6.55,-18.36999 19.11999,-26.76001 -61.53,-1.53 -58.47999,52.57999 -85.539998,78.13999 36.769998,-10.13001 60.110008,-52.39002 61.670008,-55.26001 -0.7,1.69 -7.32001,17.95001 -8.05001,35.35 13,-25 32.71001,-33.79999 43.65001,-36.82998 -9.8,8.5 -18.86,15.85 -26,23.54998 -2.39999,6.41001 -4.8,24.31 0.43,30.25 0.5845,0.68912 1.29451,1.20578 2.13,1.54999 7.91001,3.19 18.51,-1 18.51,-1 0,0 -1.79,-11.61999 -11.62,-13.79001 5.62,-3.57998 16.60001,-7.79001 40.74001,6.76001 24.14,14.55002 40.35,4.09 45.08,-2.29001 4.72999,-6.38 5.87001,-16.73001 5.87001,-16.73001 2.34408,5.55118 3.62076,11.33786 3.82999,17.36002 -26.30001,17.5 -25.28,37.16998 -25.28,37.16998 0,0 -0.77001,-5.10998 -5.37,-11.61999 -7.72999,6.44 -7.50999,19.23999 -6.53,26.45001 l 0.06,0.45999 c -0.06,-0.19 -0.12,-0.38 -0.19,-0.57999 -2.30001,-7.26001 -5,-19 -1.68,-26.86999 0.23458,-0.55585 0.50124,-1.09586 0.80001,-1.62 -1,0.31 -2.15,0.57001 -3.26,0.78 -11.61,2.23999 -25.86,-0.20999 -25.86,-0.20999 L 200,409 c -9.2,-4.09 -17.37,-14.04999 -17.37,-14.04999 0,0 -34,20.94 -32.44,36.26999 1.56,15.32999 13.41001,28.22 13.41001,28.22 0,0 -0.26,-2.81 -1.15,-12.26001 5.94,13.23999 10.56,27.43 10.85001,28.31 2.46399,-6.99509 4.54732,-14.10175 6.25,-21.32001 1.92,-9.07 -1.78,-30.78 -1.78,-30.78 0,0 10.34,17.62 27.70999,16.47001 -11.36999,4.85998 -21.70999,22.22 -21.70999,22.22 0,0 0.64,0.51001 32.17999,10 l -0.66,-0.06 c -5.85001,-0.64002 -32.62,-5.16 -32.62,-5.16 l 4.60001,16.22 41.63,12 c -14.17999,0.25 -40.22999,-2.43 -40.22999,-2.43 l 5.24,8.81 42.65,8.42999 c -14.20847,1.42997 -28.42513,1.51664 -42.65,0.26001 6.45253,5.26041 13.30921,9.9271 20.57001,14.00003 -1.25,8.10999 -2.55,30.76001 17.64,47.21998 -0.11999,-20 3.52001,-34.58002 6.19,-42.54999 13.76,-1.64002 31.68001,-7.58002 29.68999,-23 -2.42001,-18.84 -19.64,-18.43 -36.86,-26.64002 -17.22,-8.21002 -8.14003,-28.32 -8.14003,-28.32 0.2,0.6 4.25999,12.36999 7.92999,12.63 3.67,0.26001 10.36,-2.42001 15.47,-16.54999 8.07001,10 26.36002,7.26999 26.36002,7.26999 0,0 18.29001,2.69 26.35999,-7.26999 5.10998,14.13001 11.70001,16.82001 15.47,16.54999 3.76999,-0.27002 7.94,-12.64999 7.94,-12.64999 0,0 9.14999,20.04998 -8.07001,28.25 -17.22,8.20001 -34.44,7.79998 -36.86001,26.63998 -2,15.45001 15.92999,21.39002 29.69,23 2.67001,8 6.31,22.54999 6.19,42.54999 20.23001,-16.46997 18.92999,-39.14002 17.67999,-47.26001 7.26078,-4.07288 14.11747,-8.73956 20.57001,-14 -14.22485,1.25665 -28.44153,1.16998 -42.64999,-0.26001 l 42.64999,-8.42999 5.23999,-8.81 c 0,0 -25.96997,2.75003 -40.18997,2.48004 l 41.63,-12 4.59,-16.20001 c 0,0 -29.5,5 -33.33002,5.23001 31.54001,-9.45001 32.18,-10 32.18,-10 0,0 -10.34,-17.36002 -21.71,-22.22 17.37,1.14999 27.71,-16.47 27.71,-16.47 0,0 -3.70002,21.70999 -1.78,30.78 1.70266,7.21829 3.78601,14.32495 6.25,21.32 0,0 4.73001,-14.67999 10.85998,-28.35 -0.89001,9.45001 -1.14999,12.26001 -1.14999,12.26001 0,0 11.88,-12.9 13.41,-28.22001 C 396.96997,415.81 363,394.89999 363,394.89999 c 0,0 -8.17001,10 -17.37,14.04999 l 2.69001,-4.08999 c 0,0 -17.12,2.94 -29.12,-0.57001 4.60001,8 1.42999,21.35998 -1.07001,29.07001 1,-7.10999 1.45002,-20.37 -6.45999,-27 -4.6,6.51001 -5.36999,11.61999 -5.36999,11.61999 0,0 1,-19.67001 -25.28,-37.16998 0.20923,-6.02216 1.4859,-11.80881 3.82999,-17.35999 0,0 1.14999,10.34 5.86999,16.73001 4.72,6.39002 20.95001,16.85001 45.07999,2.29001 24.12997,-14.56 35.11999,-10.33999 40.73999,-6.76001 -9.82999,2.17002 -11.62,13.79001 -11.62,13.79001 0,0 10.60001,4.20999 18.51001,1 7.91001,-3.20999 5.23999,-24.64999 2.56,-31.79999 -7.17001,-7.70001 -16.23001,-15.04999 -26,-23.54999 10.94,3 30.62,11.81 43.64999,36.82999 -0.73001,-17.39999 -7.35,-33.66 -8.04998,-35.35 C 397.13,339.56 420.48001,381.84 457.26001,392 Z M 272.79999,359.78 c 0,0 -12.44,-14.94 -15,-25.66 4.47,6.89001 15,11.10998 15,11.10998 0,0 10.53,-4.22 15,-11.10998 -2.56,10.72 -15,25.66 -15,25.66 z"
       style="fill:#ffffff;fill-opacity:1;fill-rule:nonzero;stroke:none"
       transform="matrix(0.37087107,0,0,0.37100214,148.60726,50.132478)"
       clip-path="url(#clipPath28)" />
    <path
       id="path29"
       d="m 459.81,344 c -25,-11.20999 -34.73999,-34.48001 -34.73999,-34.48001 0,0 5.10998,29.38 35.25,49.29999 30.14001,19.91998 28.6,47.5 28.6,47.5 0,0 9.70999,-35.5 -18.38998,-63.85001 16.60998,12.26001 37.79999,19.67001 37.79999,19.67001 0,0 -34.22,-25 -49.54001,-55.94 0,-0.05 -3.46002,20.14002 1.01999,37.80002 z"
       style="fill:#dfaf67;fill-opacity:1;fill-rule:nonzero;stroke:none"
       transform="matrix(0.37087107,0,0,0.37100214,148.60726,50.132478)"
       clip-path="url(#clipPath30)" />
    <path
       id="path31"
       d="m 464.54999,404.29001 c 0,0 20.44,28.47 16.06,56.54001 -22.87,-57.09 -71.04999,-63.10001 -71.04999,-63.10001 25.48999,17.79999 34.89999,38.70001 34.89999,38.70001 0,0 -11.1,-15.73999 -36.38998,-27.35 32.78,25.54998 32.26001,61.41998 32.26001,61.41998 0,0 -12.64002,-19.60999 -31.48001,-34.32001 29.42001,35.35001 25,76.38001 25,76.38001 0,0 -8.51999,-33.54001 -25.29001,-53.93 18.06,43.60999 2.83999,89.54999 2.83999,89.54999 0,0 -0.77999,-43.61999 -15.92999,-64.78 10.13001,56.00003 -13.48999,96.00003 -13.48999,96.00003 0,0 0,-32.51001 8.26001,-58.36999 -42.57999,49.75 -37,122.23999 -37,122.23999 0,0 -3.31,-11.91998 -8.60998,-20.85999 12.92001,73.85999 -10.46,97.70002 -10.46,97.70002 0,0 26.35999,-8.28003 25.69001,-66.57001 -0.66999,-58.28998 15.89999,-76.83997 15.89999,-76.83997 -16.88998,68.89002 13.57999,134.46997 13.57999,134.46997 0,0 -9.60001,-66.57 15.57,-112.53003 -7,32.87 8.94001,53.58002 2.65,93.65003 19.54001,-28.81 7.28,-96.71002 20.20001,-127.17999 -3.64001,41.40002 10.92999,84.13 10.92999,84.13 0,0 0,-62.92999 16.23001,-102.47998 10.93,38 -4,76.31 -4,76.31 0,0 24.17002,-25.5 19.87,-64.91998 -4.30002,-39.41999 2,-66.23999 2,-66.23999 0,0 1,20.86999 18.86999,43.72003 -12.91,-53.65 -0.32998,-74.79999 -0.32998,-74.79999 10.6,24.88 13.60998,40.54001 13.60998,40.54001 3.39997,-97.32016 -40.39004,-97.08014 -40.39004,-97.08014 z"
       style="fill:#dfaf67;fill-opacity:1;fill-rule:nonzero;stroke:none"
       transform="matrix(0.37087107,0,0,0.37100214,148.60726,50.132478)"
       clip-path="url(#clipPath32)" />
    <path
       id="path33"
       d="m 435,286.87 c -10.14001,2.54 -12.95001,4.51 -12.95001,4.51 0,0 21.39001,-0.57 24.20001,27.85999 12.10001,-29 5.35001,-38.84 5.35001,-38.84 l 18,5.35001 c 0,0 -24.93,-33 -60.79001,-22.79999 0,0 11,-21.39 32.92999,-26.44999 -36.59,-7 -69.79001,7.88 -50.38,52.06001 C 391.35999,288.56 413,282.37 435,286.87 Z"
       style="fill:#dfaf67;fill-opacity:1;fill-rule:nonzero;stroke:none"
       transform="matrix(0.37087107,0,0,0.37100214,148.60726,50.132478)"
       clip-path="url(#clipPath34)" />
    <path
       id="path35"
       d="m 295,591.20001 c -13.44,-2 -22.23001,-0.88 -22.23001,-0.88 0,0 -8.79001,-1.15998 -22.23,0.88 -4.67999,-6.71997 -4.1,-12 -4.1,-12 l 6,4.67999 c 5.84001,-0.58001 20.33,-0.72998 20.33,-0.72998 0,0 14.48999,0.15003 20.32999,0.72998 l 6,-4.67999 c 0,0 0.61001,5.27997 -4.09998,12 z"
       style="fill:#ffffff;fill-opacity:1;fill-rule:nonzero;stroke:none"
       transform="matrix(0.37087107,0,0,0.37100214,148.60726,50.132478)"
       clip-path="url(#clipPath36)" />
    <path
       id="path37"
       d="M 332.78,390.42999 315.94,395.66 c 0,0 12.81,7.54001 24.32999,4.75 C 351.78998,397.62 359,382.28 359,382.28 l -20.41,6.34 v 7.20999 z"
       style="fill:#dfaf67;fill-opacity:1;fill-rule:nonzero;stroke:none"
       transform="matrix(0.37087107,0,0,0.37100214,148.60726,50.132478)"
       clip-path="url(#clipPath38)" />
    <path
       id="path39"
       d="m 323,694.29999 c 0,0 1.07001,-16.38001 -2.26001,-27.42999 -3.60001,15.30999 -19.70001,39.80999 -19.70001,39.80999 2.53,-9.84997 -0.09,-23.55999 -0.09,-23.55999 -2.28293,16.86633 -7.26623,32.893 -14.94998,48.08001 27.39001,-18.83001 32.23001,-45.85998 32.23001,-45.85998 0,0 1.82999,22 -10.59,40.54998 27.9,-18 22.41001,-61.80999 22.41001,-61.80999 C 328,685.51001 323,694.29999 323,694.29999 Z"
       style="fill:#dfaf67;fill-opacity:1;fill-rule:nonzero;stroke:none"
       transform="matrix(0.37087107,0,0,0.37100214,148.60726,50.132478)"
       clip-path="url(#clipPath40)" />
    <path
       id="path41"
       d="m 315.94,222.57001 c -13.11999,6.78999 -18.11999,17.49 -18.11999,17.49 0,0 15.14001,-8 39.70001,-13.44 -15.35001,15.35001 -22.66,26 -22.66,26 0,0 21.63,-14.91 45.45999,-20.89999 23.82998,-5.98999 24.42001,-23.10001 24.42001,-23.10001 0,0 -12,9.64999 -38,8.33 l 11.54999,-6.86999 c 0,0 -38.45001,-4.82001 -61.4,6.28999 10.81,-10.81999 13.29999,-15.06 13.29999,-15.06 0,0 -36.75,10.42 -37.38,48 -0.01,0.07 17.64001,-26.39001 43.13,-26.74 z"
       style="fill:#dfaf67;fill-opacity:1;fill-rule:nonzero;stroke:none"
       transform="matrix(0.37087107,0,0,0.37100214,148.60726,50.132478)"
       clip-path="url(#clipPath42)" />
    <path
       id="path43"
       d="m 434.85001,84.150002 -73,30.299998 15.60998,34.43 -40.85,18.82 L 288,142 319.22,111.71 272.85001,44.709999 226.49001,111.71 257.64999,142 209,167.7 l -40.86,-18.82 15.61,-34.42999 -73,-30.300001 12.63,28.620001 28.13999,13.86 -13.15,20.11001 22.42,50.8 h 1.34 c 28.34,-14.72999 67.46001,-23.85 110.67,-23.85 43.20999,0 82.33001,9.11999 110.66998,23.85 h 1.34 l 22.42001,-50.8 -13.14999,-20.11 28.13998,-13.86 z M 256.31,103.92 272.79999,81.059998 289.28998,103.92 l -16.48999,13.5 z"
       style="fill:#dfaf67;fill-opacity:1;fill-rule:nonzero;stroke:none"
       transform="matrix(0.37087107,0,0,0.37100214,148.60726,50.132478)"
       clip-path="url(#clipPath44)" />
    <path
       id="path45"
       d="m 156.28999,711.13 c 0.24001,-1.76 9.25,-67.15002 -15.58,-112.48999 6.95,32.87 -8.94,53.58002 -2.64999,93.65003 -19.54,-28.81 -7.29,-96.71002 -20.2,-127.17999 3.64,41.40002 -10.93,84.13 -10.93,84.13 0,0 0,-62.92999 -16.230003,-102.47998 -10.779999,37.42999 3.57,75.26001 4,76.28998 -0.68,-0.71002 -24.110001,-26 -19.860001,-64.90003 4.309998,-39.40997 -2,-66.23999 -2,-66.23999 0,0 -1,20.87 -18.879997,43.71997 12.919998,-53.64999 0.34,-74.79998 0.34,-74.79998 -10.600002,24.88 -13.61,40.54001 -13.61,40.54001 -3.41,-97.32001 40.390003,-97.07999 40.390003,-97.07999 0,0 -25.16,6.85001 -32.169998,53 3.234115,-4.35007 5.774116,-9.0734 7.619999,-14.17001 0,0 12.939998,39.75 6.389999,67.16 4.782925,-11.77097 8.032917,-23.95099 9.749996,-36.54001 0,0 17.910004,28.70001 10.910004,67.69998 3.868126,-7.13232 6.368126,-14.71563 7.5,-22.75 0,0 23.749998,43.75 18.499998,90 6.75,-26.75 3.25,-61.92999 3.25,-61.92999 0,0 19.67,17.15002 17.75,67.92999 4.41074,-13.40234 6.32741,-27.15234 5.75,-41.25 0,0 32.75,42.75 28.25,89.25 8.72,-15.40997 9.11,-62.72998 5.31,-86 16.63,67.96002 -12.78999,132.70001 -13.60001,134.44 z"
       style="fill:#ba8238;fill-opacity:1;fill-rule:nonzero;stroke:none"
       transform="matrix(0.37087107,0,0,0.37100214,148.60726,50.132478)"
       clip-path="url(#clipPath46)" />
    <path
       id="path47"
       d="m 105.27,470.48999 c -1.21,-4.70999 -0.28,-18.19 3.76999,-34.91998 -11.679997,9.1 -20.699994,23 -20.699994,23 C 95.599998,412.11002 134.78,398.17001 136,397.75 c -24.68,17.25 -34.29,37.41 -34.86,38.64001 0.79,-1.07 12,-16.1 36.34999,-27.27999 C 104.75,434.63 105.27,470.48999 105.27,470.48999 Z"
       style="fill:#ba8238;fill-opacity:1;fill-rule:nonzero;stroke:none"
       transform="matrix(0.37087107,0,0,0.37100214,148.60726,50.132478)"
       clip-path="url(#clipPath48)" />
    <path
       id="path49"
       d="m 134.17,548.16998 c 0,0 0.11999,-6.65997 1.16,-16 -0.69,9.48999 -1.16,16 -1.16,16 z"
       style="fill:#af7127;fill-opacity:1;fill-rule:nonzero;stroke:none"
       transform="matrix(0.37087107,0,0,0.37100214,148.60726,50.132478)"
       clip-path="url(#clipPath50)" />
    <path
       id="path51"
       d="m 134.16,548.15997 c -0.36999,-0.53003 -12.11,-17.5 -12.59999,-45.70001 C 115.24,516.25 110,538.65002 110,538.65002 c -15.739998,-62.91998 24.53,-100.47 26.66,-102.39999 l 0.07,-0.06 c -29.4,35.35001 -25,76.37998 -25,76.37998 0,0 8.49999,-33.57001 25.26999,-53.94001 -17.88,43.16999 -3.13001,88.64002 -2.84,89.52997 z"
       style="fill:#ba8238;fill-opacity:1;fill-rule:nonzero;stroke:none"
       transform="matrix(0.37087107,0,0,0.37100214,148.60726,50.132478)"
       clip-path="url(#clipPath52)" />
    <path
       id="path53"
       d="m 299,666.5 c 8.16,-12.62 5.20999,-30.09998 5.20999,-30.09998 0,0 -2.54001,37.09998 -31.36001,37.09998 -28.82001,0 -31.36001,-37.09998 -31.36001,-37.09998 0,0 -2.94999,17.47998 5.21001,30.09998 -52.83,-17.09003 -32.86,-65.07001 -32.86,-65.07001 0,0 -1.16,35.54999 21.34,52.88001 -1.16001,-27.5 4.33999,-41.15998 4.33999,-41.15998 0,0 -0.66999,29.5 33.33001,29.5 34,0 33.33001,-29.5 33.33001,-29.5 0,0 5.5,13.65998 4.34,41.15998 22.5,-17.33002 21.34,-52.88001 21.34,-52.88001 0,0 19.92001,47.97998 -32.85999,65.07001 z"
       style="fill:#ba8238;fill-opacity:1;fill-rule:nonzero;stroke:none"
       transform="matrix(0.37087107,0,0,0.37100214,148.60726,50.132478)"
       clip-path="url(#clipPath54)" />
    <path
       id="path55"
       d="m 272.79999,586.69 v 3.63001 c 0,0 -8.79001,-1.15998 -22.23,0.88 -4.67999,-6.71997 -4.1,-12 -4.1,-12 0,0 2.39999,6.16999 5.8,8.75 2.53001,-1.38 20.53,-1.26001 20.53,-1.26001 z"
       style="fill:#010101;fill-opacity:0.298;fill-rule:nonzero;stroke:none"
       transform="matrix(0.37087107,0,0,0.37100214,148.60726,50.132478)"
       clip-path="url(#clipPath56)" />
    <path
       id="path57"
       d="M 272.79999,534.29999 V 537.06 c 0,0 -15.79999,1.14001 -24.2,-0.40003 -1,6.64002 -0.07,9.85999 0,10.08002 -0.21001,-0.19 -4.13,-3.90997 -2.74,-12.66998 -0.01,0 6.22001,2.40997 26.94,0.22998 z"
       style="fill:#010101;fill-opacity:0.298;fill-rule:nonzero;stroke:none"
       transform="matrix(0.37087107,0,0,0.37100214,148.60726,50.132478)"
       clip-path="url(#clipPath58)" />
    <path
       id="path59"
       d="m 232,571.28998 c -20.19,-16.46002 -18.89,-39.10999 -17.64,-47.22003 -7.2608,-4.07288 -14.11746,-8.73957 -20.56999,-14 14.22487,1.25662 28.44153,1.16995 42.64999,-0.26001 l -42.64999,-8.43 -5.24001,-8.80999 c 0,0 26,2.67999 40.23,2.42999 l -41.63001,-12 -4.6,-16.22 c 0,0 26.77,4.51999 32.61999,5.16 l -26.67,1.10999 11.82,7.63 46,15.87 -36.36,2.83999 40.77,9.28 c 0,0 -5.39,3.29999 -28.59,11.22998 -10.23999,29.37012 8.95002,50.37012 9.86002,51.39008 z"
       style="fill:#010101;fill-opacity:0.298;fill-rule:nonzero;stroke:none"
       transform="matrix(0.37087107,0,0,0.37100214,148.60726,50.132478)"
       clip-path="url(#clipPath60)" />
    <path
       id="path61"
       d="m 220.12,414.32999 c -2.34,-0.64002 -16.94001,-5.54001 -16.94001,-5.54001 0,0 0.42,1.92001 3.52001,8.73999 -8.65999,-5.2106 -16.69666,-11.25058 -24.11,-18.12 0,0 -14.9,9.59 -21.08001,19.5 -6.18,9.91001 -1,21.75 -1,21.75 l 1.91001,-9.17001 c 7.50999,16.76999 10.67,42.79001 10.8,43.95001 -0.28999,-0.88 -4.91,-15.07001 -10.85001,-28.31 0.89,9.45002 1.15,12.26001 1.15,12.26001 0,0 -11.88001,-12.89999 -13.41001,-28.22 -1.52999,-15.32 32.44001,-36.26999 32.44001,-36.26999 0,0 8.17,10 17.36999,14.04999 l -2.69,-4.08999 c 0,0 17.12,2.94 29.12,-0.57001 -4.49001,7.82998 -1.58001,20.70999 0.88,28.48999 C 226.57001,432.04999 222.91,427.75 220.12,414.32999 Z"
       style="fill:#010101;fill-opacity:0.298;fill-rule:nonzero;stroke:none"
       transform="matrix(0.37087107,0,0,0.37100214,148.60726,50.132478)"
       clip-path="url(#clipPath62)" />
    <path
       id="path63"
       d="m 272.79999,447.41 v 6.82001 c 0,0 -18.29001,2.69 -26.36,-7.26999 -5.11,14.13001 -11.7,16.82001 -15.47,16.54999 -3.77001,-0.27002 -7.73,-12 -7.93001,-12.63001 0.22999,0.4 4.39999,7.66001 11.47,5.75 7.25999,-1.95001 11,-26.10998 11,-26.10998 0,0 5.11002,15.47998 27.29001,16.88998 z"
       style="fill:#010101;fill-opacity:0.298;fill-rule:nonzero;stroke:none"
       transform="matrix(0.37087107,0,0,0.37100214,148.60726,50.132478)"
       clip-path="url(#clipPath64)" />
    <path
       id="path65"
       d="m 186.57001,382.28 20.39999,6.32999 v 6.32998 c -7.75,-3.91 -19.92,-12.32998 -20.39,-12.64999 l -0.01,-0.01 z"
       style="fill:#ba8238;fill-opacity:1;fill-rule:nonzero;stroke:none"
       transform="matrix(0.37087107,0,0,0.37100214,148.60726,50.132478)"
       clip-path="url(#clipPath66)" />
    <path
       id="path67"
       d="m 229.66,395.64999 c -0.57,0.12 -12.28,2.57001 -18.20999,1.13001 -1.33162,-0.38458 -2.61162,-0.89792 -3.83999,-1.54001 l 5.22999,-4.82001 16.81,5.20999 0.01,0.02 z"
       style="fill:#ba8238;fill-opacity:1;fill-rule:nonzero;stroke:none"
       transform="matrix(0.37087107,0,0,0.37100214,148.60726,50.132478)"
       clip-path="url(#clipPath68)" />
    <path
       id="path69"
       d="m 223.13,405.07001 c 1.11001,-0.20999 2.21001,-0.47 3.26,-0.78 -0.29877,0.52414 -0.56543,1.06415 -0.8,1.61999 z"
       style="fill:#ba8238;fill-opacity:1;fill-rule:nonzero;stroke:none"
       transform="matrix(0.37087107,0,0,0.37100214,148.60726,50.132478)"
       clip-path="url(#clipPath70)" />
    <path
       id="path71"
       d="m 260.73999,363.48999 c 0,0 -1.14999,10.34 -5.86999,16.73001 -4.72001,6.39002 -21,16.85001 -45.08001,2.29001 -24.08,-14.56 -35.11999,-10.34 -40.74,-6.76001 9.83,2.17001 11.61999,13.79001 11.61999,13.79001 0,0 -10.6,4.20999 -18.50999,1 C 161.31436,390.20288 160.59438,389.68954 160,389 l -0.06,-0.08 c 0,0 -0.57001,-18.23999 7.4,-29.14999 7.97,-10.91 38.08,-23.5 38.08,-23.5 0.0718,3.64487 0.58949,7.22525 1.55305,10.74115 0.96358,3.5159 2.34359,6.85995 4.14005,10.03213 1.79648,3.17222 3.95453,6.07566 6.47415,8.71033 2.51964,2.63468 5.3239,4.92014 8.41275,6.85636 -9.62158,-2.00345 -18.59491,-5.61676 -26.92,-10.84 15.92,21.23001 47.17,33.39001 61.65999,1.72 z"
       style="fill:#010101;fill-opacity:0.298;fill-rule:nonzero;stroke:none"
       transform="matrix(0.37087107,0,0,0.37100214,148.60726,50.132478)"
       clip-path="url(#clipPath72)" />
    <path
       id="path73"
       d="m 211.88,309.67001 c -15.86,3.59 -41.36,15.60001 -62.83999,40.85001 -0.15,-9.89002 6,-27 6.19999,-27.54999 -0.41,0.22 -12.69,7.14002 -29.28999,33.23999 C 109.35001,382.31 89,391.67001 88.360001,392 115.42,366.44 112.36,312.33002 173.89999,313.85999 c -12.57,8.39001 -18.72,25.57 -19.11999,26.76001 1.02,-1.44001 20.88,-28.38999 57.1,-30.94999 z"
       style="fill:#010101;fill-opacity:0.298;fill-rule:nonzero;stroke:none"
       transform="matrix(0.37087107,0,0,0.37100214,148.60726,50.132478)"
       clip-path="url(#clipPath74)" />
    <path
       id="path75"
       d="m 190.16,284 c 0,0 -8.53,0.51999 -21.16,-5.19 -1.63001,12.42999 4.60001,18.81 4.60001,18.81 8.08,12.20001 36.58999,7.04998 37.80999,6.82998 -1.8,0.59 -71.83,23.07999 -41.89999,-44.89999 C 166,277.39999 189.48,283.82999 190.16,284 Z"
       style="fill:#010101;fill-opacity:0.298;fill-rule:nonzero;stroke:none"
       transform="matrix(0.37087107,0,0,0.37100214,148.60726,50.132478)"
       clip-path="url(#clipPath76)" />
    <path
       id="path77"
       d="m 259,296.64999 c -0.51001,-0.85 -9,-14.64001 -34.29001,-25.88 -26.07001,-11.59 -29.85,-18.54001 -29.85,-18.54001 C 186.12,265 190.16,284 190.16,284 189.48001,283.51999 172.51001,271.14001 193.24001,240.05 197,261 246.31,260.73999 259,296.64999 Z"
       style="fill:#010101;fill-opacity:0.298;fill-rule:nonzero;stroke:none"
       transform="matrix(0.37087107,0,0,0.37100214,148.60726,50.132478)"
       clip-path="url(#clipPath78)" />
    <path
       id="path79"
       d="m 251.73,258.14001 c 11.21,18.75 7.31001,38.54999 7.31001,38.54999 1.64001,-26.54999 -21.15,-50.29001 -21.15,-50.29001 0,0 27.23999,7.28 34.89002,35.88001 0.003,0.02 0.003,0.04 0,0.06 -0.36002,-0.66999 -9.86002,-17.81 -21.05003,-24.19999 z"
       style="fill:#010101;fill-opacity:0.298;fill-rule:nonzero;stroke:none"
       transform="matrix(0.37087107,0,0,0.37100214,148.60726,50.132478)"
       clip-path="url(#clipPath80)" />
    <path
       id="path81"
       d="m 232.05,714.34003 c 1.55008,4.07 3.53342,7.91668 5.95,11.53997 -11.24001,-7.25 -17.06,-18.69 -20,-29.77001 3.5,4.71002 9.57001,12.76001 14.05,18.23004 z"
       style="fill:#ba8238;fill-opacity:1;fill-rule:nonzero;stroke:none"
       transform="matrix(0.37087107,0,0,0.37100214,148.60726,50.132478)"
       clip-path="url(#clipPath82)" />
    <path
       id="path83"
       d="M 259.62,731.20001 C 233.10001,713 227.72,687 227.41,685.40997 c -0.002,-0.0267 -0.002,-0.0533 0,-0.08 0,0 8.5,19.79998 23.30001,33.14001 -2.42855,-10.61127 -4.28855,-21.32123 -5.58001,-32.13 2.54139,15.69256 7.37139,30.64593 14.49,44.86004 z"
       style="fill:#ba8238;fill-opacity:1;fill-rule:nonzero;stroke:none"
       transform="matrix(0.37087107,0,0,0.37100214,148.60726,50.132478)"
       clip-path="url(#clipPath84)" />
    <path
       id="path85"
       d="m 56.669998,406.26999 c 0,0 -9.700001,-35.5 18.39,-63.85001 -16.340001,12.07001 -37.14,19.43 -37.779999,19.65 1,-0.76999 34.449997,-25.5 49.529999,-55.92002 -4.46,36.73001 -9.199997,45.79999 -9.199997,45.79999 l 10.729995,-2.14999 c -36.759994,16.63003 -31.669998,56.47003 -31.669998,56.47003 z"
       style="fill:#ba8238;fill-opacity:1;fill-rule:nonzero;stroke:none"
       transform="matrix(0.37087107,0,0,0.37100214,148.60726,50.132478)"
       clip-path="url(#clipPath86)" />
    <path
       id="path87"
       d="M 144.17999,278.64001 C 111.45,272.35001 96.469994,289.72 96.469994,289.72 100.54847,289.6888 104.57847,290.11548 108.56,291 95.649994,297.26999 99.18,318.23001 99.349998,319.20999 87.260002,290.23999 94,280.39999 94,280.39999 l -18,5.34 c 0,0 24.92,-33 60.79001,-22.79001 0,0 -11,-21.39 -32.93,-26.45999 33.55999,-4.25999 46.35999,19.75 40.31998,42.15002 z"
       style="fill:#ba8238;fill-opacity:1;fill-rule:nonzero;stroke:none"
       transform="matrix(0.37087107,0,0,0.37100214,148.60726,50.132478)"
       clip-path="url(#clipPath88)" />
    <path
       id="path89"
       d="m 188.57001,220.48 18.64,11.83999 -19.11,-6.06 C 168.98001,220.2 160.86,208.64 160.86,208.64 c 0,0 12,9.64 38,8.33 l -11.55,-6.86999 c 0,0 23.17999,2.63 40.13,16.88 C 212.67,219.62 188.57001,220.48 188.57001,220.48 Z"
       style="fill:#ba8238;fill-opacity:1;fill-rule:nonzero;stroke:none"
       transform="matrix(0.37087107,0,0,0.37100214,148.60726,50.132478)"
       clip-path="url(#clipPath90)" />
    <path
       id="path91"
       d="M 389.23001,711.13 C 389,709.37 380,644 404.81,598.64001 c -6.95001,32.87 8.94,53.58002 2.64999,93.65003 C 427,663.48004 414.75,595.58002 427.66,565.11005 c -3.64001,41.40002 10.93,84.13 10.93,84.13 0,0 0,-62.92999 16.23001,-102.47998 10.78,37.42999 -3.57001,75.26001 -4,76.28998 0.67999,-0.71002 24.10998,-26 19.85998,-64.90003 -4.30999,-39.40997 2,-66.23999 2,-66.23999 0,0 1,20.87 18.88001,43.71997 -12.92002,-53.64999 -0.34,-74.79998 -0.34,-74.79998 10.60001,24.88 13.60999,40.54001 13.60999,40.54001 3.41,-97.32001 -40.38999,-97.07999 -40.38999,-97.07999 0,0 25.16001,6.85001 32.16999,53 -3.2306,-4.35068 -5.76725,-9.07401 -7.60999,-14.17004 0,0 -12.94,39.75 -6.39001,67.16 -4.78293,-11.77097 -8.03293,-23.95099 -9.75,-36.54001 0,0 -17.85999,28.70001 -10.85999,67.70001 -3.86813,-7.13226 -6.36813,-14.71563 -7.5,-22.75 0,0 -23.75,43.75 -18.5,90 -6.75,-26.75 -3.25,-61.92999 -3.25,-61.92999 0,0 -19.70001,17.14996 -17.75,67.92999 -4.41074,-13.40234 -6.32742,-27.15234 -5.75,-41.25 0,0 -32.78,42.75 -28.25,89.25 -8.72,-15.40997 -9.10999,-62.72998 -5.31,-86 -16.69,67.96002 12.73001,132.70001 13.54001,134.44 z"
       style="fill:#ba8238;fill-opacity:1;fill-rule:nonzero;stroke:none"
       transform="matrix(0.37087107,0,0,0.37100214,148.60726,50.132478)"
       clip-path="url(#clipPath92)" />
    <path
       id="path93"
       d="m 440.25,470.48999 c 1.20999,-4.70999 0.28,-18.19 -3.76999,-34.91998 11.67999,9.1 20.70001,23 20.70001,23 -7.26001,-46.45999 -46.44,-60.4 -47.66,-60.82001 24.67999,17.25 34.29001,37.41 34.85998,38.64001 -0.79,-1.07 -12,-16.1 -36.35,-27.27999 32.73999,25.51998 32.22,61.37997 32.22,61.37997 z"
       style="fill:#ba8238;fill-opacity:1;fill-rule:nonzero;stroke:none"
       transform="matrix(0.37087107,0,0,0.37100214,148.60726,50.132478)"
       clip-path="url(#clipPath94)" />
    <path
       id="path95"
       d="m 411.35001,548.16998 c 0,0 -0.12,-6.65997 -1.16001,-16 0.69,9.48999 1.16001,16 1.16001,16 z"
       style="fill:#af7127;fill-opacity:1;fill-rule:nonzero;stroke:none"
       transform="matrix(0.37087107,0,0,0.37100214,148.60726,50.132478)"
       clip-path="url(#clipPath96)" />
    <path
       id="path97"
       d="m 411.35999,548.15997 c 0.36999,-0.53003 12.10998,-17.5 12.6,-45.70001 6.32001,13.78998 11.56,36.19 11.56,36.19 15.73999,-62.91998 -24.53,-100.47 -26.66,-102.39999 l -0.07,-0.06 c 29.39999,35.35001 25,76.37998 25,76.37998 0,0 -8.51001,-33.56 -25.29001,-53.94001 17.90002,43.17005 3.15002,88.64008 2.86002,89.53003 z"
       style="fill:#ba8238;fill-opacity:1;fill-rule:nonzero;stroke:none"
       transform="matrix(0.37087107,0,0,0.37100214,148.60726,50.132478)"
       clip-path="url(#clipPath98)" />
    <path
       id="path99"
       d="M 246.57001,666.5 C 238.41,653.88 241.36,636.40002 241.36,636.40002 c 0,0 2.53999,37.09998 31.36,37.09998 28.82001,0 31.36002,-37.09998 31.36002,-37.09998 0,0 2.95001,17.47998 -5.20999,30.09998 52.82998,-17.09003 32.86001,-65.07001 32.86001,-65.07001 0,0 1.16001,35.54999 -21.33999,52.88001 1.16,-27.5 -4.34,-41.15998 -4.34,-41.15998 0,0 0.67001,29.5 -33.33002,29.5 -34.00003,0 -33.33,-29.5 -33.33,-29.5 0,0 -5.5,13.65998 -4.34,41.15998 -22.5,-17.33002 -21.33999,-52.88001 -21.33999,-52.88001 0,0 -19.97003,47.97998 32.85997,65.07001 z"
       style="fill:#ba8238;fill-opacity:1;fill-rule:nonzero;stroke:none"
       transform="matrix(0.37087107,0,0,0.37100214,148.60726,50.132478)"
       clip-path="url(#clipPath100)" />
    <path
       id="path101"
       d="m 272.72,586.69 v 3.63001 c 0,0 8.79001,-1.15998 22.23001,0.88 4.67999,-6.71997 4.10001,-12 4.10001,-12 0,0 -2.4,6.16999 -5.79999,8.75 C 290.72,586.57001 272.72,586.69 272.72,586.69 Z"
       style="fill:#010101;fill-opacity:0.298;fill-rule:nonzero;stroke:none"
       transform="matrix(0.37087107,0,0,0.37100214,148.60726,50.132478)"
       clip-path="url(#clipPath102)" />
    <path
       id="path103"
       d="M 272.72,534.29999 V 537.06 c 0,0 15.79999,1.14001 24.20001,-0.40003 1,6.64002 0.07,9.85999 0,10.08002 0.20999,-0.19 4.13001,-3.90997 2.73999,-12.66998 0.01,0 -6.22,2.40997 -26.94,0.22998 z"
       style="fill:#010101;fill-opacity:0.298;fill-rule:nonzero;stroke:none"
       transform="matrix(0.37087107,0,0,0.37100214,148.60726,50.132478)"
       clip-path="url(#clipPath104)" />
    <path
       id="path105"
       d="m 313.48001,571.28998 c 20.19,-16.46002 18.88999,-39.10999 17.63999,-47.22003 7.26077,-4.07288 14.11746,-8.73957 20.57,-14 -14.22485,1.25662 -28.44153,1.16995 -42.64999,-0.26001 l 42.64999,-8.43 5.23999,-8.80999 c 0,0 -26.04999,2.67999 -40.23001,2.42999 l 41.63001,-12 4.6,-16.22 c 0,0 -26.76999,4.51999 -32.61999,5.16 h -0.05 l 26.67001,1.10999 -11.82,7.63 -46,15.87 36.36001,2.83999 -40.76999,9.28 c 0,0 5.39002,3.29999 28.59,11.22998 10.32996,29.37012 -8.86005,50.37012 -9.81003,51.39008 z"
       style="fill:#ba8238;fill-opacity:1;fill-rule:nonzero;stroke:none"
       transform="matrix(0.37087107,0,0,0.37100214,148.60726,50.132478)"
       clip-path="url(#clipPath106)" />
    <path
       id="path107"
       d="m 325.39999,414.32999 c 2.34,-0.64002 16.94001,-5.54001 16.94001,-5.54001 0,0 -0.42002,1.92001 -3.51999,8.73999 8.66,-5.2106 16.69665,-11.25058 24.10998,-18.12 0,0 14.9,9.59 21.07999,19.5 6.17999,9.91001 1,21.75 1,21.75 l -1.91,-9.17001 c -7.51001,16.76999 -10.67002,42.79001 -10.79999,43.95001 0.29001,-0.88 4.91,-15.07001 10.85,-28.31 C 382.25998,456.57999 382,459.38998 382,459.38998 c 0,0 11.88,-12.89999 13.41,-28.22 1.53,-15.32 -32.44,-36.26999 -32.44,-36.26999 0,0 -8.17001,10 -17.36999,14.04999 l 2.69,-4.08999 c 0,0 -17.12,2.94 -29.12,-0.57001 4.48999,7.82998 1.57999,20.70999 -0.88,28.48999 0.70999,-0.72998 4.31998,-5.02997 7.10998,-18.44998 z"
       style="fill:#ba8238;fill-opacity:1;fill-rule:nonzero;stroke:none"
       transform="matrix(0.37087107,0,0,0.37100214,148.60726,50.132478)"
       clip-path="url(#clipPath108)" />
    <path
       id="path109"
       d="m 272.72,447.41 v 6.82001 c 0,0 18.28,2.69 26.35999,-7.23001 5.10998,14.13 11.70001,16.82001 15.47,16.54999 3.76999,-0.27002 7.73001,-12 7.92999,-12.63001 -0.23001,0.4 -4.39999,7.66001 -11.47,5.75 -7.26001,-1.95001 -11,-26.10998 -11,-26.10998 0,0 -5.10999,15.44 -27.28998,16.85 z"
       style="fill:#010101;fill-opacity:0.298;fill-rule:nonzero;stroke:none"
       transform="matrix(0.37087107,0,0,0.37100214,148.60726,50.132478)"
       clip-path="url(#clipPath110)" />
    <path
       id="path111"
       d="m 359,382.28 -20.39999,6.32999 v 6.32998 c 7.75,-3.91 19.92001,-12.32998 20.38998,-12.64999 l 0.01,-0.01 z"
       style="fill:#ba8238;fill-opacity:1;fill-rule:nonzero;stroke:none"
       transform="matrix(0.37087107,0,0,0.37100214,148.60726,50.132478)"
       clip-path="url(#clipPath112)" />
    <path
       id="path113"
       d="m 315.85999,395.64999 c 0.57,0.12 12.27999,2.57001 18.20999,1.13001 1.33163,-0.38458 2.61163,-0.89792 3.83999,-1.54001 l -5.23001,-4.82001 -16.81,5.20999 -0.01,0.02 z"
       style="fill:#ba8238;fill-opacity:1;fill-rule:nonzero;stroke:none"
       transform="matrix(0.37087107,0,0,0.37100214,148.60726,50.132478)"
       clip-path="url(#clipPath114)" />
    <path
       id="path115"
       d="m 322.39001,405.07001 c -1.10998,-0.20999 -2.20999,-0.47 -3.26001,-0.78 0.29874,0.52414 0.5654,1.06415 0.79999,1.61999 z"
       style="fill:#ba8238;fill-opacity:1;fill-rule:nonzero;stroke:none"
       transform="matrix(0.37087107,0,0,0.37100214,148.60726,50.132478)"
       clip-path="url(#clipPath116)" />
    <path
       id="path117"
       d="m 284.78,363.48999 c 0,0 1.14999,10.34 5.86999,16.73001 4.72001,6.39002 21,16.85001 45.07999,2.29001 24.07999,-14.56 35.12,-10.34 40.73999,-6.76001 -9.82999,2.17001 -11.61999,13.79001 -11.61999,13.79001 0,0 10.6,4.20999 18.51001,1 0.83548,-0.34421 1.5455,-0.86087 2.13,-1.54999 l 0.06,-0.08 c 0,0 0.57001,-18.23999 -7.4,-29.14999 -7.97,-10.91 -38.07998,-23.5 -38.07998,-23.5 -0.071,3.64261 -0.58741,7.22095 -1.54911,10.73502 -0.9617,3.5141 -2.33944,6.85672 -4.1332,10.02783 -1.79374,3.17114 -3.9488,6.07406 -6.46512,8.70877 -2.51633,2.6347 -5.3172,4.92084 -8.40256,6.85837 9.62158,-2.00345 18.59491,-5.61676 26.92001,-10.84 C 330.51001,383 299.26999,395.16 284.78,363.48999 Z"
       style="fill:#ba8238;fill-opacity:1;fill-rule:nonzero;stroke:none"
       transform="matrix(0.37087107,0,0,0.37100214,148.60726,50.132478)"
       clip-path="url(#clipPath118)" />
    <path
       id="path119"
       d="m 333.64001,309.67001 c 15.85999,3.59 41.35999,15.60001 62.84,40.85001 0.14999,-9.89002 -6,-27 -6.20001,-27.54999 0.41,0.22 12.69,7.14002 29.29001,33.23999 16.6,26.09998 37,35.45999 37.58999,35.73999 -27.05999,-25.56 -24,-79.66998 -85.54,-78.14001 12.57,8.39001 18.72,25.57 19.11999,26.76001 -1.01999,-1.39002 -20.88,-28.34 -57.09998,-30.9 z"
       style="fill:#ba8238;fill-opacity:1;fill-rule:nonzero;stroke:none"
       transform="matrix(0.37087107,0,0,0.37100214,148.60726,50.132478)"
       clip-path="url(#clipPath120)" />
    <path
       id="path121"
       d="m 355.35999,284 c 0,0 8.52999,0.51999 21.16,-5.19 1.63,12.42999 -4.60001,18.81 -4.60001,18.81 -8.07998,12.20001 -36.58999,7.04998 -37.80999,6.82998 1.79998,0.59 71.83001,23.07999 41.89999,-44.89999 3.48001,17.85 -20.00998,24.28 -20.64999,24.45001 z"
       style="fill:#ba8238;fill-opacity:1;fill-rule:nonzero;stroke:none"
       transform="matrix(0.37087107,0,0,0.37100214,148.60726,50.132478)"
       clip-path="url(#clipPath122)" />
    <path
       id="path123"
       d="m 286.5,296.64999 c 0.51001,-0.85 9,-14.64001 34.29001,-25.88 26.07001,-11.59 29.85,-18.54001 29.85,-18.54001 C 359.39999,265 355.35999,284 355.35999,284 c 0.67999,-0.48001 17.64999,-12.85999 -3.07999,-43.95 -3.76001,20.95 -53.07001,20.68999 -65.78,56.59999 z"
       style="fill:#ba8238;fill-opacity:1;fill-rule:nonzero;stroke:none"
       transform="matrix(0.37087107,0,0,0.37100214,148.60726,50.132478)"
       clip-path="url(#clipPath124)" />
    <path
       id="path125"
       d="m 293.79001,258.14001 c -11.20999,18.75 -7.31,38.54999 -7.31,38.54999 C 284.84,270.14001 307.63,246.39999 307.63,246.39999 c 0,0 -27.23999,7.28 -34.89001,35.88001 -0.003,0.02 -0.003,0.04 0,0.06 0.36002,-0.66999 9.86002,-17.81 21.05002,-24.19999 z"
       style="fill:#ba8238;fill-opacity:1;fill-rule:nonzero;stroke:none"
       transform="matrix(0.37087107,0,0,0.37100214,148.60726,50.132478)"
       clip-path="url(#clipPath126)" />
    <path
       id="path127"
       d="m 313.47,714.34003 c -1.5469,4.06958 -3.52692,7.91626 -5.94,11.53997 11.23999,-7.25 17.06,-18.69 20,-29.77001 C 324,700.82001 318,708.87 313.47,714.34003 Z"
       style="fill:#ba8238;fill-opacity:1;fill-rule:nonzero;stroke:none"
       transform="matrix(0.37087107,0,0,0.37100214,148.60726,50.132478)"
       clip-path="url(#clipPath128)" />
    <path
       id="path129"
       d="m 285.89999,731.20001 c 26.52002,-18.20001 31.9,-44.20001 32.21,-45.79004 0.002,-0.0267 0.002,-0.0533 0,-0.08 0,0 -8.5,19.79998 -23.29999,33.14001 2.42853,-10.61127 4.28851,-21.32123 5.57998,-32.13 -2.54135,15.69256 -7.37136,30.64593 -14.48999,44.86004 z"
       style="fill:#ba8238;fill-opacity:1;fill-rule:nonzero;stroke:none"
       transform="matrix(0.37087107,0,0,0.37100214,148.60726,50.132478)"
       clip-path="url(#clipPath130)" />
    <path
       id="path131"
       d="m 488.85001,406.26999 c 0,0 9.70001,-35.5 -18.38999,-63.85001 16.34,12.07001 37.14002,19.43 37.78,19.65 -1.04999,-0.76999 -34.45001,-25.5 -49.53,-55.92002 4.45999,36.73001 9.20001,45.79999 9.20001,45.79999 l -10.73001,-2.14999 c 36.75998,16.63003 31.66999,56.47003 31.66999,56.47003 z"
       style="fill:#ba8238;fill-opacity:1;fill-rule:nonzero;stroke:none"
       transform="matrix(0.37087107,0,0,0.37100214,148.60726,50.132478)"
       clip-path="url(#clipPath132)" />
    <path
       id="path133"
       d="m 401.34,278.64001 c 32.73001,-6.29 47.70999,11.07999 47.70999,11.07999 -4.06497,-0.0282 -8.08164,0.3985 -12.04999,1.28 12.91,6.26999 9.38,27.23001 9.20999,28.20999 12.09,-28.95001 5.34,-38.79001 5.34,-38.79001 l 18,5.34 c 0,0 -24.92002,-33 -60.79001,-22.79001 0,0 11,-21.39 32.92999,-26.45999 C 408.10001,232.23 395.29999,256.23999 401.34,278.64001 Z"
       style="fill:#ba8238;fill-opacity:1;fill-rule:nonzero;stroke:none"
       transform="matrix(0.37087107,0,0,0.37100214,148.60726,50.132478)"
       clip-path="url(#clipPath134)" />
    <path
       id="path135"
       d="m 357,220.48 -18.64001,11.83999 19.10998,-6.06 C 376.58997,220.2 384.70996,208.64 384.70996,208.64 c 0,0 -12,9.64 -38,8.33 l 11.54999,-6.86999 c 0,0 -23.25995,2.62999 -40.18994,16.89999 C 332.85001,219.62 357,220.48 357,220.48 Z"
       style="fill:#ba8238;fill-opacity:1;fill-rule:nonzero;stroke:none"
       transform="matrix(0.37087107,0,0,0.37100214,148.60726,50.132478)"
       clip-path="url(#clipPath136)" />
    <path
       id="path137"
       d="m 272.81,126.54 v 34.6 c -83.45999,6.46001 -112,36.40001 -112,36.40001 L 138.39,146.74 151.53999,126.63 123.39999,112.77 110.75,84.150002 171.75,117.42 160,153 l 49,14.72 48.64999,-25.72 -31.22,-30.3 46.35999,-67.000003 V 73.940002 L 248.27,106 Z"
       style="fill:#ba8238;fill-opacity:1;fill-rule:nonzero;stroke:none"
       transform="matrix(0.37087107,0,0,0.37100214,148.60726,50.132478)"
       clip-path="url(#clipPath138)" />
    <path
       id="path139"
       d="m 422.22,112.77 -28.14001,13.86 13.15002,20.11 -22.42001,50.79999 h -1.34 l 16,-48.89999 -13.84,-25.87 30.34,-15 18.88001,-23.619998 z"
       style="fill:#ba8238;fill-opacity:1;fill-rule:nonzero;stroke:none"
       transform="matrix(0.37087107,0,0,0.37100214,148.60726,50.132478)"
       clip-path="url(#clipPath140)" />
    <g
       id="g140" />
    <path
       id="path141"
       d="M 29.99926,-16.429125 H 21.136135 V 4.074327e-4 H 10.615352 V -16.429125 H 1.765596 v -7.379253 H 29.99926 Z m 14.283934,-7.379253 V 4.074327e-4 H 33.708939 V -23.808378 Z m 22.18789,13.568735 c -0.197181,1.0527467 -0.641674,1.8648656 -1.336821,2.4330146 -0.695147,0.5714911 -1.570765,0.8555656 -2.620169,0.8555656 -1.363558,0 -2.412963,-0.4277828 -3.14153,-1.2833484 -0.73191,-0.8555656 -1.096194,-2.0754148 -1.096194,-3.6628898 0,-1.584133 0.364284,-2.807325 1.096194,-3.66289 0.728567,-0.86225 1.777972,-1.296717 3.14153,-1.296717 1.015984,0 1.871549,0.287417 2.566696,0.855566 0.701831,0.571491 1.166377,1.363557 1.390294,2.379541 l 10.280155,-1.283348 c -0.795408,-2.984453 -2.429672,-5.283786 -4.906133,-6.897997 -2.479804,-1.620896 -5.607965,-2.433015 -9.384485,-2.433015 -4.698927,0 -8.315028,1.076141 -10.854988,3.221739 -2.533277,2.138914 -3.796573,5.180182 -3.796573,9.117121 0,3.9302541 1.263296,6.9715223 3.796573,9.1171203 2.53996,2.13891396 6.156061,3.20837092 10.854988,3.20837092 3.77652,0 6.904681,-0.80543478 9.384485,-2.41964642 2.476461,-1.6208957 4.110725,-3.9235702 4.906133,-6.9113656 z M 97.799489,4.074327e-4 92.465573,-7.2317953 90.848019,-5.4805595 V 4.074327e-4 H 80.273763 V -23.808378 h 10.574256 v 7.526303 l 7.138625,-7.526303 H 108.5609 L 98.655055,-13.621801 108.74805,4.074327e-4 Z M 125.12077,-15.613664 v 7.3792528 h -14.79861 v -7.3792528 z m 25.14227,11.991286 H 139.02037 L 137.21566,4.074327e-4 H 127.02908 L 139.40805,-23.808378 H 149.9823 L 162.16075,4.074327e-4 h -10.13311 z m -2.99448,-5.9488544 -2.58007,-5.8953816 -2.66027,5.8953816 z m 31.65258,-6.0424316 v 7.3792528 h -14.79861 v -7.3792528 z m 27.28118,3.235107 c 1.78131,0.447835 3.14487,1.15635 4.09067,2.125546 0.95249,0.9625111 1.4304,2.1455978 1.4304,3.542576 0,2.1589662 -1.1363,3.8166245 -3.40889,4.9729749 -2.26591,1.15969236 -5.47763,1.7378675327 -9.63848,1.7378675327 H 182.44701 V -23.808378 h 18.18077 c 3.02121,0 5.35397,0.574833 7.00494,1.724499 1.64763,1.142982 2.47312,2.773904 2.47312,4.892766 0,2.292648 -1.3034,3.896834 -3.90352,4.812556 z m -13.27463,-2.566697 h 5.56117 c 1.33682,0 2.00523,-0.394362 2.00523,-1.18977 0,-0.82883 -0.66841,-1.273323 -2.00523,-1.336822 h -5.56117 z m 6.28306,8.6091289 c 1.42371,0 2.13891,-0.4578612 2.13891,-1.3769258 0,-0.9524851 -0.7152,-1.4303987 -2.13891,-1.4303987 h -6.28306 v 2.8073245 z m 31.13456,6.76431532 c -4.89276,0 -8.68265,-1.06945696 -11.36298,-3.20837092 -2.67364,-2.145598 -4.01046,-5.1868662 -4.01046,-9.1171203 0,-3.936939 1.33682,-6.978207 4.01046,-9.117121 2.68033,-2.145598 6.47022,-3.221739 11.36298,-3.221739 4.9195,0 8.70271,1.076141 11.34961,3.221739 2.65359,2.138914 3.98373,5.180182 3.98373,9.117121 0,3.9302541 -1.33014,6.9715223 -3.98373,9.1171203 -2.6469,2.13891396 -6.43011,3.20837092 -11.34961,3.20837092 z m 0.0401,-7.37925302 c 1.55739,0 2.74716,-0.4277828 3.56931,-1.2833484 0.82883,-0.8555656 1.24324,-2.0754148 1.24324,-3.6628898 0,-1.584133 -0.41441,-2.807325 -1.24324,-3.66289 -0.82215,-0.86225 -2.01192,-1.296717 -3.56931,-1.296717 -1.58748,0 -2.80733,0.434467 -3.66289,1.296717 -0.85557,0.855565 -1.28335,2.078757 -1.28335,3.66289 0,1.587475 0.42778,2.8073242 1.28335,3.6628898 0.85556,0.8555656 2.07541,1.2833484 3.66289,1.2833484 z m 33.86168,7.37925302 c -4.89277,0 -8.68266,-1.06945696 -11.36298,-3.20837092 -2.67365,-2.145598 -4.01047,-5.1868662 -4.01047,-9.1171203 0,-3.936939 1.33682,-6.978207 4.01047,-9.117121 2.68032,-2.145598 6.47021,-3.221739 11.36298,-3.221739 4.9195,0 8.7027,1.076141 11.34961,3.221739 2.65359,2.138914 3.98373,5.180182 3.98373,9.117121 0,3.9302541 -1.33014,6.9715223 -3.98373,9.1171203 -2.64691,2.13891396 -6.43011,3.20837092 -11.34961,3.20837092 z m 0.0401,-7.37925302 c 1.5574,0 2.74717,-0.4277828 3.56931,-1.2833484 0.82883,-0.8555656 1.24325,-2.0754148 1.24325,-3.6628898 0,-1.584133 -0.41442,-2.807325 -1.24325,-3.66289 -0.82214,-0.86225 -2.01191,-1.296717 -3.56931,-1.296717 -1.58747,0 -2.80732,0.434467 -3.66289,1.296717 -0.85556,0.855565 -1.28335,2.078757 -1.28335,3.66289 0,1.587475 0.42779,2.8073242 1.28335,3.6628898 0.85557,0.8555656 2.07542,1.2833484 3.66289,1.2833484 z m 0,0"
       style="fill:#dfaf67;fill-opacity:1;fill-rule:nonzero;stroke:none"
       aria-label="TICK-A-BOO"
       transform="matrix(1.1688175,0,0,1.1688175,85.658997,369.85109)"
       clip-path="url(#clipPath142)" />
    <g
       id="g142" />
    <path
       id="path143"
       d="m 5.1141952,-12.276069 c 1.1180734,0 2.0369156,0.136785 2.7595003,0.404409 0.7285319,0.270598 1.2667534,0.677981 1.6176382,1.225123 0.3479111,0.541195 0.5233533,1.2221496 0.5233533,2.0458367 0,0.5649839 -0.1070494,1.0556278 -0.3211485,1.4749053 -0.208152,0.4222512 -0.4846968,0.7790831 -0.8326079,1.0704959 -0.3508848,0.2854655 -0.7225847,0.5233535 -1.1180734,0.7136639 L 11.34686,-0.00105044 H 8.456521 L 5.5304991,-4.7112321 H 4.1507489 v 4.71018166 H 1.5458757 V -12.276069 Z m -0.178416,2.140991 H 4.1507489 v 3.306643 h 0.8326079 c 0.8623438,0 1.4808525,-0.1427328 1.8555261,-0.4281983 0.3716999,-0.2854656 0.5590367,-0.7077167 0.5590367,-1.2727007 0,-0.5768783 -0.2022048,-0.9902086 -0.6066143,-1.2370174 C 6.392843,-10.010187 5.7743343,-10.135078 4.9357792,-10.135078 Z m 19.1529548,0.7493474 v 9.38468016 H 22.126158 L 21.781221,-1.2023847 h -0.142733 c -0.199231,0.31817519 -0.449014,0.57985196 -0.749347,0.78503032 -0.303307,0.19923117 -0.636351,0.34493755 -0.99913,0.44009274 -0.365752,0.09515518 -0.7434,0.14273278 -1.129968,0.14273278 -0.675007,0 -1.260806,-0.11894399 -1.76037,-0.35683195 -0.493618,-0.23788796 -0.877212,-0.60661431 -1.153757,-1.10617899 -0.279518,-0.505512 -0.416304,-1.1597039 -0.416304,-1.9625757 v -6.1256151 h 2.557296 v 5.4833175 c 0,0.6750071 0.118944,1.1834927 0.356832,1.522483 0.243835,0.341964 0.630403,0.5114591 1.153756,0.5114591 0.514433,0 0.918842,-0.1189439 1.213229,-0.3568319 0.300333,-0.237888 0.511459,-0.5857991 0.630403,-1.046707 0.124891,-0.4668552 0.19031,-1.0348127 0.19031,-1.700899 v -4.4128217 z m 8.028719,9.38468016 H 29.560157 V -13.0611 h 2.557296 z m 9.340076,-9.56309616 c 0.871265,0 1.620612,0.1665216 2.248041,0.4995647 0.624456,0.3330432 1.109153,0.8177399 1.451117,1.4511166 0.33899,0.6363503 0.511459,1.4094862 0.511459,2.3194077 v 1.2370174 h -6.054249 c 0.02379,0.7225847 0.237888,1.2905422 0.642298,1.7008989 0.410356,0.4133304 0.978314,0.6185087 1.700899,0.6185087 0.59472,0 1.141862,-0.059472 1.641427,-0.1784159 0.499564,-0.1248912 1.011023,-0.312228 1.534377,-0.5590368 v 1.97447014 c -0.460908,0.23194076 -0.945605,0.39846234 -1.451117,0.49956472 -0.508485,0.11002318 -1.12402,0.16652158 -1.843631,0.16652158 -0.945605,0 -1.778213,-0.16949518 -2.497824,-0.51145913 -0.722585,-0.34791114 -1.290542,-0.88018551 -1.700899,-1.59384931 -0.41333,-0.7136639 -0.618509,-1.6087174 -0.618509,-2.688134 0,-1.0942847 0.184364,-2.0042061 0.559037,-2.7357116 0.3717,-0.7285319 0.89208,-1.2756742 1.558166,-1.641427 0.666087,-0.3716999 1.439222,-0.5590367 2.319408,-0.5590367 z m 0.02379,1.8198429 c -0.499565,0 -0.915869,0.163548 -1.248912,0.4876704 -0.327096,0.3181751 -0.511459,0.8177398 -0.559037,1.4986941 h 3.592108 c -0.0089,-0.3806207 -0.08029,-0.7166375 -0.214099,-1.0110238 -0.127865,-0.3003336 -0.321149,-0.5382215 -0.582825,-0.7136639 -0.261677,-0.1724688 -0.591747,-0.2616768 -0.987235,-0.2616768 z m 20.321579,0.5233536 2.557296,-5.0551189 h 2.807078 l -4.067885,7.5053649 v 4.76965366 H 60.506408 V -4.6874433 l -4.067885,-7.5886257 h 2.818973 z m 18.020013,2.509718 c 0,0.7850303 -0.107049,1.4808525 -0.321148,2.0815197 -0.208152,0.6036407 -0.51146,1.1150998 -0.915869,1.5343773 -0.398462,0.41333036 -0.877212,0.72555832 -1.439222,0.93965748 -0.564984,0.21409917 -1.198361,0.32114876 -1.903104,0.32114876 -0.660139,0 -1.266753,-0.10704959 -1.819843,-0.32114876 -0.547142,-0.21409916 -1.022918,-0.52632712 -1.427328,-0.93965748 -0.404409,-0.4192775 -0.719611,-0.9307366 -0.939657,-1.5343773 -0.22302,-0.6006672 -0.333043,-1.2964894 -0.333043,-2.0815197 0,-1.0377863 0.181389,-1.9179717 0.547142,-2.6405564 0.3717,-0.7196111 0.898027,-1.2667534 1.581955,-1.641427 0.680954,-0.3806207 1.492747,-0.5709311 2.438352,-0.5709311 0.880185,0 1.659268,0.1903104 2.343196,0.5709311 0.680954,0.3746736 1.216202,0.9218159 1.605744,1.641427 0.386568,0.7225847 0.582825,1.6027701 0.582825,2.6405564 z m -6.494341,0 c 0,0.6185087 0.06542,1.1388886 0.202205,1.5581661 0.133812,0.4222512 0.344937,0.7374527 0.630403,0.9515519 0.285465,0.208152 0.657165,0.3092543 1.118073,0.3092543 0.451987,0 0.814766,-0.1011023 1.094285,-0.3092543 0.285465,-0.2140992 0.493617,-0.5293007 0.630403,-0.9515519 0.133812,-0.4192775 0.202205,-0.9396574 0.202205,-1.5581661 0,-0.6185087 -0.06839,-1.1329415 -0.202205,-1.5462718 C 76.867152,-6.6678606 76.659,-6.977115 76.373535,-7.185267 c -0.285466,-0.2051783 -0.654192,-0.3092543 -1.106179,-0.3092543 -0.683928,0 -1.177546,0.2349144 -1.4868,0.7017695 -0.303307,0.4609079 -0.451987,1.1537566 -0.451986,2.0815197 z m 20.003404,-4.6744985 v 9.38468016 H 91.369397 L 91.02446,-1.2023847 h -0.142733 c -0.199231,0.31817519 -0.449014,0.57985196 -0.749347,0.78503032 -0.303307,0.19923117 -0.63635,0.34493755 -0.99913,0.44009274 -0.365752,0.09515518 -0.743399,0.14273278 -1.129967,0.14273278 -0.675007,0 -1.260807,-0.11894399 -1.760371,-0.35683195 -0.493618,-0.23788796 -0.877212,-0.60661431 -1.153757,-1.10617899 -0.279518,-0.505512 -0.416304,-1.1597039 -0.416304,-1.9625757 v -6.1256151 h 2.557296 v 5.4833175 c 0,0.6750071 0.118944,1.1834927 0.356832,1.522483 0.243835,0.341964 0.630403,0.5114591 1.153756,0.5114591 0.514433,0 0.918843,-0.1189439 1.213229,-0.3568319 0.300334,-0.237888 0.511459,-0.5857991 0.630403,-1.046707 0.124891,-0.4668552 0.19031,-1.0348127 0.19031,-1.700899 v -4.4128217 z m 10.704956,-0.178416 c 0.12489,0 0.27357,0.00892 0.44009,0.023789 0.17247,0.017842 0.31521,0.035683 0.4282,0.059472 l -0.19031,2.4026684 c -0.0892,-0.029736 -0.21112,-0.053525 -0.36872,-0.071366 -0.15166,-0.014868 -0.2825,-0.023789 -0.39252,-0.023789 -0.33304,0 -0.65419,0.044604 -0.96345,0.1308384 -0.30925,0.089208 -0.58877,0.2259936 -0.8326,0.416304 -0.24681,0.1843631 -0.4401,0.4281983 -0.58283,0.7374526 -0.14273,0.3033072 -0.2141,0.6750071 -0.2141,1.1180735 v 4.76965366 H 98.803396 V -9.3857306 h 1.938784 l 0.38062,1.5819549 h 0.11895 c 0.18139,-0.3152015 0.41035,-0.6066143 0.68987,-0.868291 0.27655,-0.267624 0.59472,-0.4817232 0.95155,-0.6422975 0.35684,-0.1665216 0.74043,-0.2497824 1.15376,-0.2497824 z m 17.54424,9.56309616 H 118.9763 V -10.111289 h -3.33044 v -2.16478 h 9.26574 v 2.16478 h -3.33043 z m 10.36299,-9.38468016 v 9.38468016 h -2.55729 V -9.3857306 Z m -1.2727,-3.6753694 c 0.38062,0 0.70475,0.09218 0.97534,0.273571 0.27655,0.175443 0.41631,0.499565 0.41631,0.975341 0,0.475776 -0.13976,0.805846 -0.41631,0.987235 -0.27059,0.184363 -0.59472,0.273571 -0.97534,0.273571 -0.38954,0 -0.71961,-0.08921 -0.98723,-0.273571 -0.2706,-0.181389 -0.40441,-0.511459 -0.40441,-0.987235 0,-0.475776 0.13381,-0.799898 0.40441,-0.975341 0.26762,-0.181389 0.59769,-0.273571 0.98723,-0.273571 z m 17.75834,3.4969534 c 1.06157,0 1.86742,0.2735712 2.41456,0.8207135 0.54714,0.5471423 0.82072,1.4243542 0.82072,2.628662 v 6.11372066 h -2.56919 V -5.484368 c 0,-0.6660863 -0.11597,-1.1686246 -0.34494,-1.5105886 -0.23194,-0.3389903 -0.58283,-0.5114591 -1.0586,-0.5114591 -0.68393,0 -1.16565,0.2438352 -1.45112,0.7255583 -0.28547,0.4846967 -0.4282,1.1745718 -0.4282,2.0696253 v 4.71018166 h -2.55729 V -5.484368 c 0,-0.4430663 -0.0535,-0.8147663 -0.15463,-1.1180734 -0.0952,-0.3003336 -0.24978,-0.5263272 -0.46388,-0.6779807 -0.20815,-0.14868 -0.47281,-0.2259936 -0.79693,-0.2259936 -0.47577,0 -0.85045,0.118944 -1.11807,0.3568319 -0.2706,0.2319408 -0.46388,0.579852 -0.58283,1.0467071 -0.11299,0.4609079 -0.16652,1.0229182 -0.16652,1.6890045 v 4.41282176 h -2.55729 V -9.3857306 h 1.95068 l 0.34494,1.2013342 h 0.14273 c 0.19031,-0.3241224 0.4282,-0.5857991 0.71366,-0.7850303 0.29141,-0.2051784 0.60959,-0.3568319 0.95155,-0.4519871 0.34791,-0.095155 0.70475,-0.1427328 1.0705,-0.1427328 0.68095,0 1.26081,0.1159704 1.73658,0.3449376 0.48172,0.2230199 0.85045,0.5679575 1.10618,1.0348126 h 0.22599 c 0.28547,-0.4817231 0.68096,-0.8326079 1.18944,-1.046707 0.51444,-0.2200464 1.04076,-0.3330432 1.58196,-0.3330432 z m 12.51588,0 c 0.87126,0 1.62061,0.1665216 2.24804,0.4995647 0.62446,0.3330432 1.10915,0.8177399 1.45112,1.4511166 0.33899,0.6363503 0.51146,1.4094862 0.51146,2.3194077 v 1.2370174 h -6.05425 c 0.0238,0.7225847 0.23789,1.2905422 0.6423,1.7008989 0.41035,0.4133304 0.97831,0.6185087 1.70089,0.6185087 0.59472,0 1.14187,-0.059472 1.64143,-0.1784159 0.49957,-0.1248912 1.01103,-0.312228 1.53438,-0.5590368 v 1.97447014 c -0.46091,0.23194076 -0.94561,0.39846234 -1.45112,0.49956472 -0.50848,0.11002318 -1.12402,0.16652158 -1.84363,0.16652158 -0.9456,0 -1.77821,-0.16949518 -2.49782,-0.51145913 -0.72259,-0.34791114 -1.29055,-0.88018551 -1.7009,-1.59384931 -0.41333,-0.7136639 -0.61851,-1.6087174 -0.61851,-2.688134 0,-1.0942847 0.18436,-2.0042061 0.55904,-2.7357116 0.3717,-0.7285319 0.89208,-1.2756742 1.55816,-1.641427 0.66609,-0.3716999 1.43922,-0.5590367 2.31941,-0.5590367 z m 0.0238,1.8198429 c -0.49957,0 -0.91587,0.163548 -1.24891,0.4876704 -0.3271,0.3181751 -0.51146,0.8177398 -0.55904,1.4986941 h 3.59211 c -0.009,-0.3806207 -0.0803,-0.7166375 -0.2141,-1.0110238 -0.12787,-0.3003336 -0.32115,-0.5382215 -0.58283,-0.7136639 -0.26167,-0.1724688 -0.59174,-0.2616768 -0.98723,-0.2616768 z m 0,0"
       style="fill:#ffffff;fill-opacity:1;fill-rule:nonzero;stroke:none"
       aria-label="Rule Your Time"
       transform="matrix(1.3136436,0,0,1.3136436,141.03568,399.94279)"
       clip-path="url(#clipPath144)" />
  </g>
</svg>
